# 3ds Max Wavefront OBJ Exporter v0.97b - (c)2007 guruware
# File Created: 18.12.2020 16:10:07

mtllib Banner (Straight).mtl

#
# object Banner__Straight_
#

v  2.2500 0.2500 9.0000
v  2.2500 -0.2500 9.0000
v  2.7500 -0.2500 9.0000
v  2.7500 0.2500 9.0000
v  2.2500 0.2500 -9.0000
v  2.7500 0.2500 -9.0000
v  2.7500 -0.2500 -9.0000
v  2.2500 -0.2500 -9.0000
v  2.3750 1.1250 9.0000
v  2.3750 0.8750 9.0000
v  2.6250 0.8750 9.0000
v  2.6250 1.1250 9.0000
v  2.3750 1.1250 -9.0000
v  2.6250 1.1250 -9.0000
v  2.6250 0.8750 -9.0000
v  2.3750 0.8750 -9.0000
# 16 vertices

vn -0.5774 0.5774 0.5774
vn -0.5774 -0.5774 0.5774
vn 0.5774 -0.5774 0.5774
vn 0.5774 0.5774 0.5774
vn -0.5774 0.5774 -0.5774
vn 0.5774 0.5774 -0.5774
vn 0.5774 -0.5774 -0.5774
vn -0.5774 -0.5774 -0.5774
vn -0.5774 0.5774 0.5774
vn 0.5774 0.5774 0.5774
vn 0.5774 0.5774 -0.5774
vn -0.5774 0.5774 -0.5774
vn 0.5774 0.5774 0.5774
vn 0.5774 -0.5774 0.5774
vn 0.5774 -0.5774 -0.5774
vn 0.5774 0.5774 -0.5774
vn 0.5774 -0.5774 0.5774
vn -0.5774 -0.5774 0.5774
vn -0.5774 -0.5774 -0.5774
vn 0.5774 -0.5774 -0.5774
vn -0.5774 -0.5774 0.5774
vn -0.5774 0.5774 0.5774
vn -0.5774 0.5774 -0.5774
vn -0.5774 -0.5774 -0.5774
vn -0.5774 0.5774 0.5774
vn -0.5774 -0.5774 0.5774
vn 0.5774 -0.5774 0.5774
vn 0.5774 0.5774 0.5774
vn -0.5774 0.5774 0.5774
vn 0.5774 0.5774 0.5774
vn 0.5774 0.5774 -0.5774
vn -0.5774 0.5774 -0.5774
vn -0.5774 0.5774 -0.5774
vn 0.5774 0.5774 -0.5774
vn 0.5774 -0.5774 -0.5774
vn -0.5774 -0.5774 -0.5774
vn 0.5774 0.5774 0.5774
vn 0.5774 -0.5774 0.5774
vn 0.5774 -0.5774 -0.5774
vn 0.5774 0.5774 -0.5774
vn 0.5774 -0.5774 0.5774
vn -0.5774 -0.5774 0.5774
vn -0.5774 -0.5774 -0.5774
vn 0.5774 -0.5774 -0.5774
vn -0.5774 -0.5774 0.5774
vn -0.5774 0.5774 0.5774
vn -0.5774 0.5774 -0.5774
vn -0.5774 -0.5774 -0.5774
# 48 vertex normals

vt 0.2500 0.7500 6.2500
vt 0.2500 0.2500 6.2500
vt 0.7500 0.2500 6.2500
vt 0.7500 0.7500 6.2500
vt 0.7500 0.7500 -5.2500
vt 0.2500 0.7500 -5.2500
vt 0.2500 0.2500 -5.2500
vt 0.7500 0.2500 -5.2500
vt 6.2500 0.2500 0.7500
vt 6.2500 0.7500 0.7500
vt -5.2500 0.7500 0.7500
vt -5.2500 0.2500 0.7500
vt -5.2500 0.7500 0.7500
vt -5.2500 0.2500 0.7500
vt 6.2500 0.2500 0.7500
vt 6.2500 0.7500 0.7500
vt -5.2500 0.7500 0.2500
vt -5.2500 0.2500 0.2500
vt 6.2500 0.2500 0.2500
vt 6.2500 0.7500 0.2500
vt 6.2500 0.2500 0.2500
vt 6.2500 0.7500 0.2500
vt -5.2500 0.7500 0.2500
vt -5.2500 0.2500 0.2500
vt 0.7500 1.2500 12.5000
vt 0.7500 0.7500 12.5000
vt 1.2500 0.7500 12.5000
vt 1.2500 1.2500 12.5000
vt 12.5000 0.7500 1.2500
vt 12.5000 1.2500 1.2500
vt -10.5000 1.2500 1.2500
vt 1.2500 1.2500 -10.5000
vt 0.7500 1.2500 -10.5000
vt 0.7500 0.7500 -10.5000
vt 1.2500 0.7500 -10.5000
vt -10.5000 0.7500 1.2500
vt -10.5000 1.2500 1.2500
vt -10.5000 0.7500 1.2500
vt 12.5000 0.7500 1.2500
vt 12.5000 1.2500 1.2500
vt -10.5000 1.2500 0.7500
vt -10.5000 0.7500 0.7500
vt 12.5000 0.7500 0.7500
vt 12.5000 1.2500 0.7500
vt 12.5000 0.7500 0.7500
vt 12.5000 1.2500 0.7500
vt -10.5000 1.2500 0.7500
vt -10.5000 0.7500 0.7500
# 48 texture coords

o Banner__Straight_
g Banner__Straight_
usemtl wire_006135058
s 2
f 1/1/1 2/2/2 3/3/3 4/4/4 
s 4
f 5/5/5 6/6/6 7/7/7 8/8/8 
s 8
f 1/9/9 4/10/10 6/11/11 5/12/12 
s 16
f 4/13/13 3/14/14 7/15/15 6/16/16 
s 32
f 3/17/17 2/18/18 8/19/19 7/20/20 
s 64
f 2/21/21 1/22/22 5/23/23 8/24/24 
s 3
f 9/25/25 10/26/26 11/27/27 12/28/28 
s 2
f 9/29/29 12/30/30 14/31/31 13/36/32 
s 1
f 13/32/33 14/33/34 15/34/35 16/35/36 
s 4
f 12/37/37 11/38/38 15/39/39 14/40/40 
s 8
f 11/41/41 10/42/42 16/43/43 15/44/44 
s 4
f 10/45/45 9/46/46 13/47/47 16/48/48 
# 12 polygons

