# 3ds Max Wavefront OBJ Exporter v0.97b - (c)2007 guruware
# File Created: 04.01.2021 14:04:45

mtllib Banner (Single).mtl

#
# object Banner__Single_
#

v  2.2500 0.3750 9.0000
v  2.2500 -0.1250 9.0000
v  2.7500 -0.1250 9.0000
v  2.7500 0.3750 9.0000
v  2.2500 0.3750 2.5000
v  2.2500 -0.1250 2.5000
v  2.3750 1.2500 9.0000
v  2.3750 1.0000 9.0000
v  2.6250 1.0000 9.0000
v  2.6250 1.2500 9.0000
v  2.3750 1.2500 2.5000
v  2.3750 1.0000 2.5000
v  2.5000 -0.1250 2.5000
v  2.5000 1.0000 2.5000
v  9.0000 0.3750 2.2500
v  9.0000 -0.1250 2.2500
v  9.0000 -0.1250 2.7500
v  9.0000 0.3750 2.7500
v  2.5000 0.3750 2.2500
v  2.5000 0.3750 2.5000
v  2.5000 -0.1250 2.2500
v  2.7500 0.3750 2.7500
v  2.7500 -0.1250 2.7500
v  9.0000 1.2500 2.3750
v  9.0000 1.0000 2.3750
v  9.0000 1.0000 2.6250
v  9.0000 1.2500 2.6250
v  2.6250 1.2500 2.6250
v  2.5000 1.2500 2.5000
v  2.5000 1.2500 2.3750
v  2.5000 1.0000 2.3750
v  2.6250 1.0000 2.6250
# 32 vertices

vn -0.5774 0.5774 0.5774
vn -0.5774 -0.5774 0.5774
vn 0.5774 -0.5774 0.5774
vn 0.5774 0.5774 0.5774
vn -0.5774 0.5774 -0.5774
vn -0.3015 0.9045 -0.3015
vn -0.3015 -0.9045 -0.3015
vn -0.5774 -0.5774 -0.5774
vn -0.5774 0.5774 0.5774
vn 0.5774 0.5774 0.5774
vn 0.3015 0.9045 0.3015
vn -0.3015 0.9045 -0.3015
vn -0.5774 0.5774 -0.5774
vn 0.5774 0.5774 0.5774
vn 0.5774 -0.5774 0.5774
vn 0.3015 -0.9045 0.3015
vn 0.3015 0.9045 0.3015
vn 0.5774 -0.5774 0.5774
vn -0.5774 -0.5774 0.5774
vn -0.5774 -0.5774 -0.5774
vn -0.3015 -0.9045 -0.3015
vn 0.3015 -0.9045 0.3015
vn -0.5774 -0.5774 0.5774
vn -0.5774 0.5774 0.5774
vn -0.5774 0.5774 -0.5774
vn -0.5774 -0.5774 -0.5774
vn -0.5774 0.5774 0.5774
vn -0.5774 -0.5774 0.5774
vn 0.5774 -0.5774 0.5774
vn 0.5774 0.5774 0.5774
vn -0.5774 0.5774 0.5774
vn 0.5774 0.5774 0.5774
vn 0.3015 0.9045 0.3015
vn -0.3015 0.9045 -0.3015
vn -0.5774 0.5774 -0.5774
vn -0.5774 0.5774 -0.5774
vn -0.3015 0.9045 -0.3015
vn -0.3015 -0.9045 -0.3015
vn -0.5774 -0.5774 -0.5774
vn 0.5774 0.5774 0.5774
vn 0.5774 -0.5774 0.5774
vn 0.3015 -0.9045 0.3015
vn 0.3015 0.9045 0.3015
vn 0.5774 -0.5774 0.5774
vn -0.5774 -0.5774 0.5774
vn -0.5774 -0.5774 -0.5774
vn -0.3015 -0.9045 -0.3015
vn 0.3015 -0.9045 0.3015
vn -0.5774 -0.5774 0.5774
vn -0.5774 0.5774 0.5774
vn -0.5774 0.5774 -0.5774
vn -0.5774 -0.5774 -0.5774
vn 0.5774 0.5774 -0.5774
vn 0.5774 0.5774 0.5774
vn 0.5774 -0.5774 0.5774
vn 0.5774 -0.5774 -0.5774
vn -0.5774 0.5774 -0.5774
vn -0.5774 -0.5774 -0.5774
vn -0.3015 -0.9045 -0.3015
vn -0.3015 0.9045 -0.3015
vn 0.5774 0.5774 -0.5774
vn -0.5774 0.5774 -0.5774
vn -0.3015 0.9045 -0.3015
vn 0.3015 0.9045 0.3015
vn 0.5774 0.5774 0.5774
vn 0.5774 0.5774 0.5774
vn 0.3015 0.9045 0.3015
vn 0.3015 -0.9045 0.3015
vn 0.5774 -0.5774 0.5774
vn 0.5774 -0.5774 0.5774
vn 0.3015 -0.9045 0.3015
vn -0.3015 -0.9045 -0.3015
vn -0.5774 -0.5774 -0.5774
vn 0.5774 -0.5774 -0.5774
vn 0.5774 -0.5774 -0.5774
vn -0.5774 -0.5774 -0.5774
vn -0.5774 0.5774 -0.5774
vn 0.5774 0.5774 -0.5774
vn 0.5774 0.5774 -0.5774
vn 0.5774 0.5774 0.5774
vn 0.5774 -0.5774 0.5774
vn 0.5774 -0.5774 -0.5774
vn 0.5774 0.5774 -0.5774
vn -0.5774 0.5774 -0.5774
vn -0.3015 0.9045 -0.3015
vn 0.3015 0.9045 0.3015
vn 0.5774 0.5774 0.5774
vn -0.5774 0.5774 -0.5774
vn -0.5774 -0.5774 -0.5774
vn -0.3015 -0.9045 -0.3015
vn -0.3015 0.9045 -0.3015
vn 0.5774 0.5774 0.5774
vn 0.3015 0.9045 0.3015
vn 0.3015 -0.9045 0.3015
vn 0.5774 -0.5774 0.5774
vn 0.5774 -0.5774 0.5774
vn 0.3015 -0.9045 0.3015
vn -0.3015 -0.9045 -0.3015
vn -0.5774 -0.5774 -0.5774
vn 0.5774 -0.5774 -0.5774
vn 0.5774 -0.5774 -0.5774
vn -0.5774 -0.5774 -0.5774
vn -0.5774 0.5774 -0.5774
vn 0.5774 0.5774 -0.5774
# 104 vertex normals

vt 0.2500 0.7500 6.2500
vt 0.2500 0.2500 6.2500
vt 0.7500 0.2500 6.2500
vt 0.7500 0.7500 6.2500
vt 0.7500 0.7500 -5.2500
vt 0.7500 0.2500 -5.2500
vt 6.2500 0.2500 0.7500
vt 6.2500 0.7500 0.7500
vt -5.2500 0.2500 0.7500
vt -5.2500 0.7500 0.7500
vt -5.2500 0.2500 0.7500
vt -5.2500 0.7500 0.2500
vt -5.2500 0.2500 0.2500
vt 6.2500 0.2500 0.2500
vt 6.2500 0.2500 0.2500
vt 6.2500 0.7500 0.2500
vt -5.2500 0.7500 0.2500
vt -5.2500 0.2500 0.2500
vt 0.7500 1.2500 12.5000
vt 0.7500 0.7500 12.5000
vt 1.2500 0.7500 12.5000
vt 1.2500 1.2500 12.5000
vt 12.5000 0.7500 1.2500
vt 12.5000 1.2500 1.2500
vt 1.2500 1.2500 -10.5000
vt 1.2500 0.7500 -10.5000
vt -10.5000 0.7500 1.2500
vt -10.5000 1.2500 1.2500
vt -10.5000 0.7500 1.2500
vt -10.5000 1.2500 0.7500
vt -10.5000 0.7500 0.7500
vt 12.5000 0.7500 0.7500
vt 12.5000 0.7500 0.7500
vt 12.5000 1.2500 0.7500
vt -10.5000 1.2500 0.7500
vt -10.5000 0.7500 0.7500
vt 0.5000 0.7500 -5.2500
vt -5.2500 0.5000 0.7500
vt 0.5000 0.2500 -5.2500
vt 6.2500 0.5000 0.2500
vt -4.8077 0.7500 0.7500
vt 5.8077 0.7500 0.7500
vt 5.8077 0.2500 0.7500
vt 5.8077 0.7500 0.2500
vt -10.0577 1.2500 1.2500
vt 12.0577 1.2500 1.2500
vt 1.0000 1.2500 -10.5000
vt -10.5000 1.0000 1.2500
vt 1.0000 0.7500 -10.5000
vt 12.5000 1.0000 0.7500
vt 12.0577 0.7500 1.2500
vt 12.0577 1.2500 0.7500
vt 0.2500 0.7500 6.2500
vt 0.2500 0.2500 6.2500
vt 0.7500 0.2500 6.2500
vt 0.7500 0.7500 6.2500
vt 0.7500 0.7500 -5.2500
vt 0.5000 0.7500 -5.2500
vt 0.5000 0.2500 -5.2500
vt 0.7500 0.2500 -5.2500
vt 6.2500 0.2500 0.7500
vt 6.2500 0.7500 0.7500
vt -4.8077 0.7500 0.7500
vt -5.2500 0.5000 0.7500
vt -5.2500 0.2500 0.7500
vt -5.2500 0.7500 0.7500
vt -5.2500 0.2500 0.7500
vt 5.8077 0.2500 0.7500
vt 5.8077 0.7500 0.7500
vt -5.2500 0.7500 0.2500
vt -5.2500 0.2500 0.2500
vt 6.2500 0.2500 0.2500
vt 6.2500 0.5000 0.2500
vt 5.8077 0.7500 0.2500
vt 6.2500 0.2500 0.2500
vt 6.2500 0.7500 0.2500
vt -5.2500 0.7500 0.2500
vt -5.2500 0.2500 0.2500
vt 0.7500 1.2500 12.5000
vt 0.7500 0.7500 12.5000
vt 1.2500 0.7500 12.5000
vt 1.2500 1.2500 12.5000
vt 12.5000 0.7500 1.2500
vt 12.5000 1.2500 1.2500
vt -10.0577 1.2500 1.2500
vt -10.5000 1.0000 1.2500
vt -10.5000 0.7500 1.2500
vt 1.2500 1.2500 -10.5000
vt 1.0000 1.2500 -10.5000
vt 1.0000 0.7500 -10.5000
vt 1.2500 0.7500 -10.5000
vt -10.5000 1.2500 1.2500
vt -10.5000 0.7500 1.2500
vt 12.0577 0.7500 1.2500
vt 12.0577 1.2500 1.2500
vt -10.5000 1.2500 0.7500
vt -10.5000 0.7500 0.7500
vt 12.5000 0.7500 0.7500
vt 12.5000 1.0000 0.7500
vt 12.0577 1.2500 0.7500
vt 12.5000 0.7500 0.7500
vt 12.5000 1.2500 0.7500
vt -10.5000 1.2500 0.7500
vt -10.5000 0.7500 0.7500
# 104 texture coords

o Banner__Single_
g Banner__Single_
usemtl wire_006135058
s 2
f 1/1/1 2/2/2 3/3/3 4/4/4 
s 4
f 5/5/5 20/37/6 13/39/7 6/6/8 
s 8
f 1/7/9 4/8/10 22/41/11 20/38/12 5/9/13 
s 16
f 4/10/14 3/11/15 23/43/16 22/42/17 
s 32
f 3/12/18 2/13/19 6/14/20 13/40/21 23/44/22 
s 64
f 2/15/23 1/16/24 5/17/25 6/18/26 
s 3
f 7/19/27 8/20/28 9/21/29 10/22/30 
s 2
f 7/23/31 10/24/32 28/45/33 29/48/34 11/27/35 
s 1
f 11/25/36 29/47/37 14/49/38 12/26/39 
s 4
f 10/28/40 9/29/41 32/51/42 28/46/43 
s 8
f 9/30/44 8/31/45 12/32/46 14/50/47 32/52/48 
s 4
f 8/33/49 7/34/50 11/35/51 12/36/52 
s 2
f 15/53/53 18/56/54 17/55/55 16/54/56 
s 4
f 19/57/57 21/60/58 13/59/59 20/58/60 
s 8
f 15/61/61 19/65/62 20/64/63 22/63/64 18/62/65 
s 16
f 18/66/66 22/69/67 23/68/68 17/67/69 
s 32
f 17/70/70 23/74/71 13/73/72 21/72/73 16/71/74 
s 64
f 16/75/75 21/78/76 19/77/77 15/76/78 
s 3
f 24/79/79 27/82/80 26/81/81 25/80/82 
s 2
f 24/83/83 30/87/84 29/86/85 28/85/86 27/84/87 
s 1
f 30/88/88 31/91/89 14/90/90 29/89/91 
s 4
f 27/92/92 28/95/93 32/94/94 26/93/95 
s 8
f 26/96/96 32/100/97 14/99/98 31/98/99 25/97/100 
s 4
f 25/101/101 31/104/102 30/103/103 24/102/104 
# 24 polygons

