# 3ds Max Wavefront OBJ Exporter v0.97b - (c)2007 guruware
# File Created: 04.01.2021 19:46:34

mtllib Banner (Stairs).mtl

#
# object Box004
#

v  -3.0000 -1.5000 2.7500
v  -3.0000 -1.5000 -2.7500
v  -2.0000 -1.5000 -2.7500
v  -2.0000 -1.5000 2.7500
v  -3.0000 2.0000 2.7500
v  -2.0000 2.0000 2.7500
v  -2.0000 -0.5000 -2.7500
v  -3.0000 -0.5000 -2.7500
v  3.0000 -1.5000 2.7500
v  2.0000 -1.5000 2.7500
v  2.0000 -1.5000 -2.7500
v  3.0000 -1.5000 -2.7500
v  3.0000 2.0000 2.7500
v  3.0000 -0.5000 -2.7500
v  2.0000 -0.5000 -2.7500
v  2.0000 2.0000 2.7500
v  -2.7500 2.5000 2.7500
v  -2.7500 0.0000 -2.7500
v  -2.2500 0.0000 -2.7500
v  -2.2500 2.5000 2.7500
v  -2.7500 3.0000 2.7500
v  -2.2500 3.0000 2.7500
v  -2.2500 0.5000 -2.7500
v  -2.7500 0.5000 -2.7500
v  2.7500 2.5000 2.7500
v  2.2500 2.5000 2.7500
v  2.2500 0.0000 -2.7500
v  2.7500 0.0000 -2.7500
v  2.7500 3.0000 2.7500
v  2.7500 0.5000 -2.7500
v  2.2500 0.5000 -2.7500
v  2.2500 3.0000 2.7500
# 32 vertices

vn -0.5774 -0.5774 0.5774
vn -0.5774 -0.5774 -0.5774
vn 0.5774 -0.5774 -0.5774
vn 0.5774 -0.5774 0.5774
vn -0.5582 0.6976 0.4492
vn 0.5582 0.6976 0.4492
vn 0.6032 0.4318 -0.6706
vn -0.6032 0.4318 -0.6706
vn -0.5774 -0.5774 0.5774
vn 0.5774 -0.5774 0.5774
vn 0.5582 0.6976 0.4492
vn -0.5582 0.6976 0.4492
vn 0.5774 -0.5774 0.5774
vn 0.5774 -0.5774 -0.5774
vn 0.6032 0.4318 -0.6706
vn 0.5582 0.6976 0.4492
vn 0.5774 -0.5774 -0.5774
vn -0.5774 -0.5774 -0.5774
vn -0.6032 0.4318 -0.6706
vn 0.6032 0.4318 -0.6706
vn -0.5774 -0.5774 0.5774
vn -0.5582 0.6976 0.4492
vn -0.6032 0.4318 -0.6706
vn -0.5774 -0.5774 -0.5774
vn 0.5774 -0.5774 0.5774
vn -0.5774 -0.5774 0.5774
vn -0.5774 -0.5774 -0.5774
vn 0.5774 -0.5774 -0.5774
vn 0.5774 -0.5774 0.5774
vn 0.5774 -0.5774 -0.5774
vn 0.6032 0.4318 -0.6706
vn 0.5582 0.6976 0.4492
vn 0.5582 0.6976 0.4492
vn 0.6032 0.4318 -0.6706
vn -0.6032 0.4318 -0.6706
vn -0.5582 0.6976 0.4492
vn -0.5774 -0.5774 0.5774
vn -0.5582 0.6976 0.4492
vn -0.6032 0.4318 -0.6706
vn -0.5774 -0.5774 -0.5774
vn -0.5774 -0.5774 -0.5774
vn -0.6032 0.4318 -0.6706
vn 0.6032 0.4318 -0.6706
vn 0.5774 -0.5774 -0.5774
vn 0.5774 -0.5774 0.5774
vn 0.5582 0.6976 0.4492
vn -0.5582 0.6976 0.4492
vn -0.5774 -0.5774 0.5774
vn -0.5582 -0.6976 -0.4492
vn 0.5582 -0.6976 -0.4492
vn 0.6032 -0.4318 0.6706
vn -0.6032 -0.4318 0.6706
vn -0.5582 0.6976 0.4492
vn 0.5582 0.6976 0.4492
vn 0.6032 0.4318 -0.6706
vn -0.6032 0.4318 -0.6706
vn -0.6032 -0.4318 0.6706
vn 0.6032 -0.4318 0.6706
vn 0.5582 0.6976 0.4492
vn -0.5582 0.6976 0.4492
vn 0.6032 -0.4318 0.6706
vn 0.5582 -0.6976 -0.4492
vn 0.6032 0.4318 -0.6706
vn 0.5582 0.6976 0.4492
vn 0.5582 -0.6976 -0.4492
vn -0.5582 -0.6976 -0.4492
vn -0.6032 0.4318 -0.6706
vn 0.6032 0.4318 -0.6706
vn -0.6032 -0.4318 0.6706
vn -0.5582 0.6976 0.4492
vn -0.6032 0.4318 -0.6706
vn -0.5582 -0.6976 -0.4492
vn 0.6032 0.4318 -0.6706
vn -0.6032 0.4318 -0.6706
vn -0.5582 0.6976 0.4492
vn 0.5582 0.6976 0.4492
vn 0.6032 -0.4318 0.6706
vn -0.6032 -0.4318 0.6706
vn -0.5582 -0.6976 -0.4492
vn 0.5582 -0.6976 -0.4492
vn 0.6032 -0.4318 0.6706
vn 0.5582 0.6976 0.4492
vn -0.5582 0.6976 0.4492
vn -0.6032 -0.4318 0.6706
vn -0.6032 -0.4318 0.6706
vn -0.5582 0.6976 0.4492
vn -0.6032 0.4318 -0.6706
vn -0.5582 -0.6976 -0.4492
vn -0.5582 -0.6976 -0.4492
vn -0.6032 0.4318 -0.6706
vn 0.6032 0.4318 -0.6706
vn 0.5582 -0.6976 -0.4492
vn 0.6032 0.4318 -0.6706
vn 0.5582 0.6976 0.4492
vn 0.6032 -0.4318 0.6706
vn 0.5582 -0.6976 -0.4492
# 96 vertex normals

vt 3.5000 -2.2500 -1.2500
vt 2.5000 3.2500 -1.2500
vt 2.5000 -2.2500 -1.2500
vt -2.5000 -2.2500 2.2500
vt -1.5000 3.2500 -0.2500
vt -2.5000 3.2500 -0.2500
vt -2.5000 -1.2500 -2.2500
vt -1.5000 2.2500 -2.2500
vt -2.5000 2.2500 -2.2500
vt -2.2500 -1.2500 -1.5000
vt 3.2500 -0.2500 -1.5000
vt -2.2500 2.2500 -1.5000
vt 2.5000 -1.2500 3.2500
vt 3.5000 -0.2500 3.2500
vt 2.5000 -0.2500 3.2500
vt 3.2500 -1.2500 -2.5000
vt -2.2500 -0.2500 -2.5000
vt -2.2500 -1.2500 -2.5000
vt 3.5000 3.2500 -1.2500
vt -1.5000 -2.2500 2.2500
vt -1.5000 -1.2500 -2.2500
vt 3.2500 -1.2500 -1.5000
vt 3.5000 -1.2500 3.2500
vt 3.2500 2.2500 -2.5000
vt -2.5000 -2.2500 -1.2500
vt -1.5000 3.2500 -1.2500
vt -2.5000 3.2500 -1.2500
vt -2.2500 -1.2500 3.5000
vt 3.2500 -0.2500 3.5000
vt -2.2500 2.2500 3.5000
vt 3.5000 -2.2500 2.2500
vt 2.5000 3.2500 -0.2500
vt 2.5000 -2.2500 2.2500
vt 3.2500 -1.2500 2.5000
vt -2.2500 -0.2500 2.5000
vt -2.2500 -1.2500 2.5000
vt -1.5000 -1.2500 3.2500
vt -2.5000 -0.2500 3.2500
vt -2.5000 -1.2500 3.2500
vt 3.5000 -1.2500 -2.2500
vt 2.5000 2.2500 -2.2500
vt 2.5000 -1.2500 -2.2500
vt -1.5000 -2.2500 -1.2500
vt 3.2500 -1.2500 3.5000
vt 3.5000 3.2500 -0.2500
vt 3.2500 2.2500 2.5000
vt -1.5000 -0.2500 3.2500
vt 3.5000 2.2500 -2.2500
vt 6.5000 6.5000 0.5000
vt 5.5000 -4.5000 5.5000
vt 6.5000 -4.5000 5.5000
vt -4.5000 -4.5000 6.5000
vt -3.5000 6.5000 1.5000
vt -4.5000 6.5000 1.5000
vt -4.5000 5.5000 -4.5000
vt -3.5000 6.5000 -4.5000
vt -4.5000 6.5000 -4.5000
vt -4.5000 5.5000 -3.5000
vt 6.5000 1.5000 -3.5000
vt -4.5000 6.5000 -3.5000
vt 5.5000 0.5000 6.5000
vt 6.5000 1.5000 6.5000
vt 5.5000 1.5000 6.5000
vt 6.5000 5.5000 -4.5000
vt -4.5000 1.5000 -4.5000
vt -4.5000 0.5000 -4.5000
vt 5.5000 6.5000 0.5000
vt -3.5000 -4.5000 6.5000
vt -3.5000 5.5000 -4.5000
vt 6.5000 0.5000 -3.5000
vt 6.5000 0.5000 6.5000
vt 6.5000 6.5000 -4.5000
vt 6.5000 6.5000 1.5000
vt 5.5000 -4.5000 6.5000
vt 6.5000 -4.5000 6.5000
vt -4.5000 -4.5000 5.5000
vt -3.5000 6.5000 0.5000
vt -4.5000 6.5000 0.5000
vt 6.5000 5.5000 -4.5000
vt 5.5000 6.5000 -4.5000
vt 5.5000 5.5000 -4.5000
vt 6.5000 5.5000 5.5000
vt -4.5000 1.5000 5.5000
vt -4.5000 0.5000 5.5000
vt -3.5000 0.5000 6.5000
vt -4.5000 1.5000 6.5000
vt -4.5000 0.5000 6.5000
vt 6.5000 1.5000 6.5000
vt -4.5000 5.5000 6.5000
vt 6.5000 0.5000 6.5000
vt 5.5000 6.5000 1.5000
vt -3.5000 -4.5000 5.5000
vt 6.5000 6.5000 -4.5000
vt 6.5000 6.5000 5.5000
vt -3.5000 1.5000 6.5000
vt -4.5000 6.5000 6.5000
# 96 texture coords

o Box004
g Box004
usemtl wire_196088225
s 2
f 1/1/1 2/19/2 3/2/3 4/3/4 
s 4
f 5/4/5 6/20/6 7/5/7 8/6/8 
s 8
f 1/7/9 4/21/10 6/8/11 5/9/12 
s 16
f 4/10/13 3/22/14 7/11/15 6/12/16 
s 32
f 3/13/17 2/23/18 8/14/19 7/15/20 
s 64
f 1/16/21 5/24/22 8/17/23 2/18/24 
s 2
f 9/25/25 10/43/26 11/26/27 12/27/28 
s 64
f 9/28/29 12/44/30 14/29/31 13/30/32 
s 4
f 13/31/33 14/45/34 15/32/35 16/33/36 
s 16
f 10/34/37 16/46/38 15/35/39 11/36/40 
s 32
f 11/37/41 15/47/42 14/38/43 12/39/44 
s 8
f 9/40/45 13/48/46 16/41/47 10/42/48 
s 1
f 18/49/49 19/67/50 20/50/51 17/51/52 
f 21/52/53 22/68/54 23/53/55 24/54/56 
s 2
f 17/55/57 20/69/58 22/56/59 21/57/60 
s 4
f 20/58/61 19/70/62 23/59/63 22/60/64 
s 2
f 19/61/65 18/71/66 24/62/67 23/63/68 
s 4
f 17/64/69 21/72/70 24/65/71 18/66/72 
s 1
f 30/73/73 31/91/74 32/74/75 29/75/76 
f 25/76/77 26/92/78 27/77/79 28/78/80 
s 2
f 25/79/81 29/93/82 32/80/83 26/81/84 
s 4
f 26/82/85 32/94/86 31/83/87 27/84/88 
s 2
f 27/85/89 31/95/90 30/86/91 28/87/92 
s 4
f 30/88/93 29/96/94 25/89/95 28/90/96 
# 24 polygons

