# 3ds Max Wavefront OBJ Exporter v0.97b - (c)2007 guruware
# File Created: 01.01.2021 03:37:48

mtllib Cushion.mtl

#
# object Box001
#

v  -0.5625 -0.2250 0.5625
v  0.5625 -0.2250 0.5625
v  -0.5625 -0.2250 -0.5625
v  0.5625 -0.2250 -0.5625
v  -0.5625 -0.1750 0.5625
v  0.5625 -0.1750 0.5625
v  -0.5625 -0.1750 -0.5625
v  0.5625 -0.1750 -0.5625
v  -0.4625 -0.1250 0.4625
v  0.4625 -0.1250 0.4625
v  0.4625 -0.1250 -0.4625
v  -0.4625 -0.1250 -0.4625
# 12 vertices

vn -0.5774 -0.5774 0.5774
vn -0.5774 -0.5774 -0.5774
vn 0.5774 -0.5774 -0.5774
vn 0.5774 -0.5774 0.5774
vn -0.1753 0.9688 0.1753
vn 0.1753 0.9688 0.1753
vn 0.1753 0.9688 -0.1753
vn -0.1753 0.9688 -0.1753
vn -0.5774 -0.5774 0.5774
vn 0.5774 -0.5774 0.5774
vn 0.6205 0.4795 0.6205
vn -0.6205 0.4795 0.6205
vn 0.5774 -0.5774 0.5774
vn 0.5774 -0.5774 -0.5774
vn 0.6205 0.4795 -0.6205
vn 0.6205 0.4795 0.6205
vn 0.5774 -0.5774 -0.5774
vn -0.5774 -0.5774 -0.5774
vn -0.6205 0.4795 -0.6205
vn 0.6205 0.4795 -0.6205
vn -0.5774 -0.5774 -0.5774
vn -0.5774 -0.5774 0.5774
vn -0.6205 0.4795 0.6205
vn -0.6205 0.4795 -0.6205
vn -0.6205 0.4795 0.6205
vn 0.6205 0.4795 0.6205
vn 0.1753 0.9688 0.1753
vn -0.1753 0.9688 0.1753
vn 0.6205 0.4795 0.6205
vn 0.6205 0.4795 -0.6205
vn 0.1753 0.9688 -0.1753
vn 0.1753 0.9688 0.1753
vn 0.6205 0.4795 -0.6205
vn -0.6205 0.4795 -0.6205
vn -0.1753 0.9688 -0.1753
vn 0.1753 0.9688 -0.1753
vn -0.6205 0.4795 -0.6205
vn -0.6205 0.4795 0.6205
vn -0.1753 0.9688 0.1753
vn -0.1753 0.9688 -0.1753
# 40 vertex normals

vt 2.1250 -0.1250 0.9000
vt -0.1250 -0.1250 0.9000
vt 2.1250 2.1250 0.9000
vt -0.1250 2.1250 0.9000
vt -0.1250 1.0000 -0.1250
vt 2.1250 1.0000 -0.1250
vt 2.1250 1.0000 2.1250
vt 2.1250 1.0000 2.1250
vt 0.0750 0.0750 1.1000
vt 1.9250 0.0750 1.1000
vt 1.9250 1.9250 1.1000
vt 0.0750 1.9250 1.1000
vt -0.1250 0.9000 -0.1250
vt 2.1250 0.9000 -0.1250
vt -0.1250 0.9000 2.1250
vt 2.1250 0.9000 2.1250
vt -0.1250 1.0000 2.1250
vt -0.1250 0.9000 2.1250
vt 2.1250 0.9000 2.1250
vt -0.1250 1.0000 2.1250
vt -0.1250 0.9000 -0.1250
vt 2.1250 0.9000 -0.1250
vt 2.1250 1.0000 -0.1250
vt -0.1250 1.0000 -0.1250
vt -0.1250 -0.1250 1.0000
vt 2.1250 -0.1250 1.0000
vt 2.1250 -0.1250 1.0000
vt 2.1250 2.1250 1.0000
vt 2.1250 2.1250 1.0000
vt -0.1250 2.1250 1.0000
vt -0.1250 2.1250 1.0000
vt -0.1250 -0.1250 1.0000
# 32 texture coords

o Box001
g Box001
usemtl wire_028028177
s 2
f 1/1/1 3/3/2 4/4/3 2/2/4 
s 4
f 9/9/5 10/10/6 11/11/7 12/12/8 
s 8
f 1/13/9 2/14/10 6/6/11 5/5/12 
s 16
f 2/15/13 4/16/14 8/8/15 6/17/16 
s 32
f 4/18/17 3/19/18 7/7/19 8/20/20 
s 64
f 3/21/21 1/22/22 5/23/23 7/24/24 
s off
f 5/25/25 6/26/26 10/10/27 9/9/28 
f 6/27/29 8/28/30 11/11/31 10/10/32 
f 8/29/33 7/30/34 12/12/35 11/11/36 
f 7/31/37 5/32/38 9/9/39 12/12/40 
# 10 polygons

