# 3ds Max Wavefront OBJ Exporter v0.97b - (c)2007 guruware
# File Created: 13.12.2020 00:00:25

mtllib DecorativeFlashing.mtl

#
# object Box001
#

v  2.1250 0.1250 -0.4500
v  2.1250 0.1250 0.4500
v  -2.1250 0.1250 -0.4500
v  -2.1250 0.1250 0.4500
v  2.1250 -0.1250 -0.4500
v  2.1250 -0.1250 0.4500
v  -2.1250 -0.1250 -0.4500
v  -2.1250 -0.1250 0.4500
# 8 vertices

vn 0.5774 0.5774 -0.5774
vn -0.5774 0.5774 -0.5774
vn -0.5774 0.5774 0.5774
vn 0.5774 0.5774 0.5774
vn 0.5774 -0.5774 -0.5774
vn 0.5774 -0.5774 0.5774
vn -0.5774 -0.5774 0.5774
vn -0.5774 -0.5774 -0.5774
vn 0.5774 0.5774 -0.5774
vn 0.5774 0.5774 0.5774
vn 0.5774 -0.5774 0.5774
vn 0.5774 -0.5774 -0.5774
vn 0.5774 0.5774 0.5774
vn -0.5774 0.5774 0.5774
vn -0.5774 -0.5774 0.5774
vn 0.5774 -0.5774 0.5774
vn -0.5774 0.5774 0.5774
vn -0.5774 0.5774 -0.5774
vn -0.5774 -0.5774 -0.5774
vn -0.5774 -0.5774 0.5774
vn -0.5774 0.5774 -0.5774
vn 0.5774 0.5774 -0.5774
vn 0.5774 -0.5774 -0.5774
vn -0.5774 -0.5774 -0.5774
# 24 vertex normals

vt 2.6250 0.0000 -44.5000
vt -1.6250 1.0000 45.5000
vt -1.6250 1.0000 -44.5000
vt -44.5000 1.0000 2.6250
vt 45.5000 -1.6250 0.0000
vt 45.5000 2.6250 0.0000
vt -44.5000 2.6250 0.0000
vt -44.5000 -1.6250 0.0000
vt -44.5000 -1.6250 1.0000
vt 45.5000 -1.6250 1.0000
vt 45.5000 2.6250 1.0000
vt -44.5000 2.6250 1.0000
vt -44.5000 0.0000 -1.6250
vt 45.5000 0.0000 -1.6250
vt 45.5000 1.0000 -1.6250
vt -44.5000 1.0000 -1.6250
vt -1.6250 0.0000 45.5000
vt 2.6250 0.0000 45.5000
vt 2.6250 1.0000 45.5000
vt -44.5000 0.0000 2.6250
vt 45.5000 0.0000 2.6250
vt 45.5000 1.0000 2.6250
vt -1.6250 0.0000 -44.5000
vt 2.6250 1.0000 -44.5000
# 24 texture coords

o Box001
g Box001
usemtl wire_177088027
s 2
f 1/5/1 3/6/2 4/7/3 2/8/4 
s 4
f 5/9/5 6/10/6 8/11/7 7/12/8 
s 8
f 1/13/9 2/14/10 6/15/11 5/16/12 
s 16
f 2/17/13 4/18/14 8/19/15 6/2/16 
s 32
f 4/20/17 3/21/18 7/22/19 8/4/20 
s 64
f 3/23/21 1/1/22 5/24/23 7/3/24 
# 6 polygons

