# 3ds Max Wavefront OBJ Exporter v0.97b - (c)2007 guruware
# File Created: 13.12.2020 00:15:20

mtllib Door.mtl

#
# object LeftDoor001
#

v  0.5000 -1.2500 -0.1250
v  -0.1000 -1.2500 -0.1250
v  -0.5000 -1.2500 -0.1250
v  0.5000 -1.2500 0.1250
v  -0.1000 -1.2500 0.1250
v  -0.5000 -1.2500 0.1250
v  0.5000 0.8500 -0.1250
v  0.0500 1.2500 -0.1250
v  -0.5000 1.2500 -0.1250
v  0.5000 0.8500 0.1250
v  0.0500 1.2500 0.1250
v  -0.5000 1.2500 0.1250
v  0.5000 -0.2500 -0.1250
v  -0.1000 -0.2500 -0.1250
v  -0.5000 -0.2500 -0.1250
v  -0.5000 -0.2500 0.1250
v  -0.1000 -0.2500 0.1250
v  0.5000 -0.2500 0.1250
# 18 vertices

vn 0.5774 -0.5774 -0.5773
vn 0.5773 -0.5774 0.5774
vn -0.0000 -0.7071 0.7071
vn 0.0000 -0.7071 -0.7071
vn 0.0000 -0.7071 -0.7071
vn -0.0000 -0.7071 0.7071
vn -0.5774 -0.5774 0.5773
vn -0.5773 -0.5774 -0.5774
vn 0.7118 0.3196 -0.6255
vn 0.2745 0.7219 -0.6352
vn 0.2745 0.7219 0.6352
vn 0.7118 0.3196 0.6255
vn 0.2745 0.7219 -0.6352
vn -0.5773 0.5774 -0.5774
vn -0.5774 0.5774 0.5773
vn 0.2745 0.7219 0.6352
vn 0.5774 -0.5774 -0.5773
vn 0.0000 -0.7071 -0.7071
vn 0.0000 -0.0000 -1.0000
vn 0.7071 -0.0000 -0.7071
vn 0.0000 -0.7071 -0.7071
vn -0.5773 -0.5774 -0.5774
vn -0.7071 -0.0000 -0.7071
vn 0.0000 -0.0000 -1.0000
vn -0.5774 -0.5774 0.5773
vn -0.0000 -0.7071 0.7071
vn -0.0000 0.0000 1.0000
vn -0.7071 0.0000 0.7071
vn -0.0000 -0.7071 0.7071
vn 0.5773 -0.5774 0.5774
vn 0.7071 0.0000 0.7071
vn -0.0000 0.0000 1.0000
vn 0.5773 -0.5774 0.5774
vn 0.5774 -0.5774 -0.5773
vn 0.7071 -0.0000 -0.7071
vn 0.7071 0.0000 0.7071
vn -0.5774 -0.5774 0.5773
vn -0.7071 0.0000 0.7071
vn -0.7071 -0.0000 -0.7071
vn -0.5773 -0.5774 -0.5774
vn 0.0000 -0.0000 -1.0000
vn 0.2745 0.7219 -0.6352
vn 0.7118 0.3196 -0.6255
vn 0.7071 -0.0000 -0.7071
vn -0.7071 -0.0000 -0.7071
vn -0.5773 0.5774 -0.5774
vn 0.2745 0.7219 -0.6352
vn 0.0000 -0.0000 -1.0000
vn -0.0000 0.0000 1.0000
vn 0.2745 0.7219 0.6352
vn -0.5774 0.5774 0.5773
vn -0.7071 0.0000 0.7071
vn 0.7071 0.0000 0.7071
vn 0.7118 0.3196 0.6255
vn 0.2745 0.7219 0.6352
vn -0.0000 0.0000 1.0000
vn 0.7071 -0.0000 -0.7071
vn 0.7118 0.3196 -0.6255
vn 0.7118 0.3196 0.6255
vn 0.7071 0.0000 0.7071
vn -0.7071 0.0000 0.7071
vn -0.5774 0.5774 0.5773
vn -0.5773 0.5774 -0.5774
vn -0.7071 -0.0000 -0.7071
# 64 vertex normals

vt 1.2500 3.0000 -1.0000
vt 1.2500 1.8000 -1.0000
vt 1.2500 1.0000 -1.0000
vt 0.7500 3.0000 -1.0000
vt 0.7500 1.8000 -1.0000
vt 0.7500 1.0000 -1.0000
vt 0.7500 3.0000 3.2000
vt 0.7500 2.1000 4.0000
vt 0.7500 1.0000 4.0000
vt 1.2500 3.0000 3.2000
vt 1.2500 2.1000 4.0000
vt 1.2500 1.0000 4.0000
vt 1.0000 3.0000 0.7500
vt 1.0000 1.8000 0.7500
vt 1.0000 1.0000 0.7500
vt 1.0000 1.0000 1.2500
vt 1.0000 1.8000 1.2500
vt 1.0000 3.0000 1.2500
vt -1.0000 3.0000 0.7500
vt -1.0000 1.8000 0.7500
vt -1.0000 1.8000 0.7500
vt -1.0000 1.0000 0.7500
vt 3.0000 1.0000 1.2500
vt 3.0000 1.8000 1.2500
vt 3.0000 1.8000 1.2500
vt 3.0000 3.0000 1.2500
vt -1.0000 1.2500 3.0000
vt -1.0000 0.7500 3.0000
vt 1.0000 0.7500 3.0000
vt 1.0000 1.2500 3.0000
vt 3.0000 1.2500 1.0000
vt 1.0000 1.2500 1.0000
vt 1.0000 0.7500 1.0000
vt 3.0000 0.7500 1.0000
vt 4.0000 2.1000 0.7500
vt 3.2000 3.0000 0.7500
vt 4.0000 1.0000 0.7500
vt 4.0000 2.1000 0.7500
vt -2.0000 2.1000 1.2500
vt -2.0000 1.0000 1.2500
vt -1.2000 3.0000 1.2500
vt -2.0000 2.1000 1.2500
vt 1.0000 0.7500 3.0000
vt 3.2000 0.7500 3.0000
vt 3.2000 1.2500 3.0000
vt 1.0000 1.2500 3.0000
vt 1.0000 1.2500 1.0000
vt -2.0000 1.2500 1.0000
vt -2.0000 0.7500 1.0000
vt 1.0000 0.7500 1.0000
# 50 texture coords

o LeftDoor001
g LeftDoor001
usemtl wire_008008136
s 2
f 1/1/1 4/4/2 5/5/3 2/2/4 
f 2/2/5 5/5/6 6/6/7 3/3/8 
s 4
f 7/7/9 8/8/10 11/11/11 10/10/12 
f 8/8/13 9/9/14 12/12/15 11/11/16 
s 8
f 1/19/17 2/20/18 14/14/19 13/13/20 
f 2/21/21 3/22/22 15/15/23 14/14/24 
s 32
f 6/23/25 5/24/26 17/17/27 16/16/28 
f 5/25/29 4/26/30 18/18/31 17/17/32 
s 64
f 4/27/33 1/28/34 13/29/35 18/30/36 
s off
f 6/31/37 16/32/38 15/33/39 3/34/40 
s 8
f 14/14/41 8/35/42 7/36/43 13/13/44 
f 15/15/45 9/37/46 8/38/47 14/14/48 
s 32
f 17/17/49 11/39/50 12/40/51 16/16/52 
f 18/18/53 10/41/54 11/42/55 17/17/56 
s 64
f 13/43/57 7/44/58 10/45/59 18/46/60 
s off
f 16/47/61 12/48/62 9/49/63 15/50/64 
# 16 polygons

