# 3ds Max Wavefront OBJ Exporter v0.97b - (c)2007 guruware
# File Created: 05.01.2021 22:37:25

mtllib Plane.mtl

#
# object Bat
#

v  0.7500 0.7500 -0.0000
v  -0.7500 0.7500 -0.0000
v  0.7500 -0.7500 -0.0001
v  -0.7500 -0.7500 -0.0001
# 4 vertices

vn 0.0000 -0.0000 1.0000
vn 0.0000 -0.0000 1.0000
vn 0.0000 -0.0000 1.0000
vn 0.0000 -0.0000 1.0000
# 4 vertex normals

vt 0.0000 0.0000 0.0000
vt 1.0000 0.0000 0.0000
vt 0.0000 1.0000 0.0000
vt 1.0000 1.0000 0.0000
# 4 texture coords

o Bat
g Bat
usemtl wire_228153184
s 1
f 3/3/1 1/1/2 2/2/3 4/4/4 
# 1 polygons

