# 3ds Max Wavefront OBJ Exporter v0.97b - (c)2007 guruware
# File Created: 04.01.2021 20:18:20

mtllib StairsFrame.mtl

#
# object Box007
#

v  -2.3500 -1.7533 0.3750
v  -1.7000 -1.7533 0.3750
v  -2.3500 -1.7533 -0.3750
v  -1.7000 -1.7533 -0.3750
v  -2.3500 1.6717 0.3750
v  -0.9623 1.6717 0.3750
v  -2.3500 1.6717 -0.3750
v  -0.9623 1.6717 -0.3750
v  -1.7000 0.2717 0.3750
v  -2.3500 0.2717 0.3750
v  -1.7000 0.2717 -0.3750
v  -2.3500 0.2717 -0.3750
v  -2.3500 1.0217 0.3750
v  -0.9623 1.0217 0.3750
v  -0.9623 1.0217 -0.3750
v  -2.3500 1.0217 -0.3750
v  0.0000 1.0217 0.3750
v  0.0000 1.0217 -0.3750
v  2.3500 -1.7533 0.3750
v  2.3500 -1.7533 -0.3750
v  1.7000 -1.7533 -0.3750
v  1.7000 -1.7533 0.3750
v  2.3500 1.6717 0.3750
v  0.9623 1.6717 0.3750
v  0.9623 1.6717 -0.3750
v  2.3500 1.6717 -0.3750
v  1.7000 0.2717 0.3750
v  2.3500 0.2717 0.3750
v  1.7000 0.2717 -0.3750
v  2.3500 0.2717 -0.3750
v  0.9623 1.0217 0.3750
v  2.3500 1.0217 0.3750
v  0.9623 1.0217 -0.3750
v  2.3500 1.0217 -0.3750
v  0.0000 1.6717 0.3750
v  0.0000 1.6717 -0.3750
# 36 vertices

vn -0.5774 -0.5774 0.5774
vn -0.5774 -0.5774 -0.5774
vn 0.5774 -0.5774 -0.5774
vn 0.5774 -0.5774 0.5774
vn -0.5774 0.5774 0.5774
vn 0.0000 0.7071 0.7071
vn 0.0000 0.7071 -0.7071
vn -0.5774 0.5774 -0.5774
vn -0.5774 -0.5774 0.5774
vn 0.5774 -0.5774 0.5774
vn 0.5514 -0.2257 0.8031
vn -0.7071 0.0000 0.7071
vn 0.5774 -0.5774 0.5774
vn 0.5774 -0.5774 -0.5774
vn 0.5514 -0.2257 -0.8031
vn 0.5514 -0.2257 0.8031
vn 0.5774 -0.5774 -0.5774
vn -0.5774 -0.5774 -0.5774
vn -0.7071 0.0000 -0.7071
vn 0.5514 -0.2257 -0.8031
vn -0.5774 -0.5774 -0.5774
vn -0.5774 -0.5774 0.5774
vn -0.7071 0.0000 0.7071
vn -0.7071 0.0000 -0.7071
vn 0.5514 -0.2257 0.8031
vn 0.2292 -0.5468 0.8053
vn -0.7071 0.0000 0.7071
vn -0.7071 0.0000 0.7071
vn 0.5514 -0.2257 -0.8031
vn 0.2292 -0.5468 -0.8053
vn 0.2292 -0.5468 0.8053
vn 0.5514 -0.2257 0.8031
vn -0.7071 0.0000 -0.7071
vn -0.7071 0.0000 -0.7071
vn 0.2292 -0.5468 -0.8053
vn 0.5514 -0.2257 -0.8031
vn -0.7071 0.0000 0.7071
vn -0.7071 0.0000 0.7071
vn -0.7071 0.0000 -0.7071
vn -0.7071 0.0000 -0.7071
vn 0.2292 -0.5468 0.8053
vn 0.0000 0.7071 0.7071
vn -0.5774 0.5774 0.5774
vn -0.7071 0.0000 0.7071
vn -0.7071 0.0000 -0.7071
vn -0.5774 0.5774 -0.5774
vn 0.0000 0.7071 -0.7071
vn 0.2292 -0.5468 -0.8053
vn -0.7071 0.0000 0.7071
vn -0.5774 0.5774 0.5774
vn -0.5774 0.5774 -0.5774
vn -0.7071 0.0000 -0.7071
vn 0.0000 0.7071 -0.7071
vn 0.0000 0.7071 0.7071
vn 0.0000 0.7071 0.7071
vn 0.0000 0.7071 -0.7071
vn 0.0000 0.7071 0.7071
vn 0.2292 -0.5468 0.8053
vn 0.0000 -0.7071 0.7071
vn 0.0000 0.7071 0.7071
vn 0.2292 -0.5468 0.8053
vn 0.2292 -0.5468 -0.8053
vn 0.0000 -0.7071 -0.7071
vn 0.0000 -0.7071 0.7071
vn 0.2292 -0.5468 -0.8053
vn 0.0000 0.7071 -0.7071
vn 0.0000 0.7071 -0.7071
vn 0.0000 -0.7071 -0.7071
vn 0.5774 -0.5774 0.5774
vn -0.5774 -0.5774 0.5774
vn -0.5774 -0.5774 -0.5774
vn 0.5774 -0.5774 -0.5774
vn 0.5774 0.5774 0.5774
vn 0.5774 0.5774 -0.5774
vn 0.0000 0.7071 -0.7071
vn 0.0000 0.7071 0.7071
vn 0.5774 -0.5774 0.5774
vn 0.7071 0.0000 0.7071
vn -0.5514 -0.2257 0.8031
vn -0.5774 -0.5774 0.5774
vn -0.5774 -0.5774 0.5774
vn -0.5514 -0.2257 0.8031
vn -0.5514 -0.2257 -0.8031
vn -0.5774 -0.5774 -0.5774
vn -0.5774 -0.5774 -0.5774
vn -0.5514 -0.2257 -0.8031
vn 0.7071 0.0000 -0.7071
vn 0.5774 -0.5774 -0.5774
vn 0.5774 -0.5774 -0.5774
vn 0.7071 0.0000 -0.7071
vn 0.7071 0.0000 0.7071
vn 0.5774 -0.5774 0.5774
vn -0.5514 -0.2257 0.8031
vn 0.7071 0.0000 0.7071
vn 0.7071 0.0000 0.7071
vn -0.2292 -0.5468 0.8053
vn -0.5514 -0.2257 -0.8031
vn -0.5514 -0.2257 0.8031
vn -0.2292 -0.5468 0.8053
vn -0.2292 -0.5468 -0.8053
vn 0.7071 0.0000 -0.7071
vn -0.5514 -0.2257 -0.8031
vn -0.2292 -0.5468 -0.8053
vn 0.7071 0.0000 -0.7071
vn 0.7071 0.0000 0.7071
vn 0.7071 0.0000 -0.7071
vn 0.7071 0.0000 -0.7071
vn 0.7071 0.0000 0.7071
vn -0.2292 -0.5468 0.8053
vn 0.7071 0.0000 0.7071
vn 0.5774 0.5774 0.5774
vn 0.0000 0.7071 0.7071
vn 0.7071 0.0000 -0.7071
vn -0.2292 -0.5468 -0.8053
vn 0.0000 0.7071 -0.7071
vn 0.5774 0.5774 -0.5774
vn 0.7071 0.0000 0.7071
vn 0.7071 0.0000 -0.7071
vn 0.5774 0.5774 -0.5774
vn 0.5774 0.5774 0.5774
vn 0.0000 0.7071 -0.7071
vn 0.0000 0.7071 -0.7071
vn 0.0000 0.7071 0.7071
vn 0.0000 0.7071 0.7071
vn 0.0000 0.7071 0.7071
vn 0.0000 0.7071 0.7071
vn 0.0000 -0.7071 0.7071
vn -0.2292 -0.5468 0.8053
vn -0.2292 -0.5468 0.8053
vn 0.0000 -0.7071 0.7071
vn 0.0000 -0.7071 -0.7071
vn -0.2292 -0.5468 -0.8053
vn -0.2292 -0.5468 -0.8053
vn 0.0000 -0.7071 -0.7071
vn 0.0000 0.7071 -0.7071
vn 0.0000 0.7071 -0.7071
# 136 vertex normals

vt 5.7000 0.2500 -1.7500
vt 4.4000 0.2500 -1.7500
vt 5.7000 1.7500 -1.7500
vt 4.4000 1.7500 -1.7500
vt -3.7000 0.2500 5.1000
vt -0.9247 0.2500 5.1000
vt -3.7000 1.7500 5.1000
vt -0.9247 1.7500 5.1000
vt -2.4000 2.3000 0.2500
vt -3.7000 2.3000 0.2500
vt 1.7500 2.3000 -2.4000
vt 5.7000 2.3000 1.7500
vt -3.7000 3.8000 0.2500
vt -0.9247 3.8000 0.2500
vt 1.7500 3.8000 -0.9247
vt 5.7000 3.8000 1.7500
vt 1.0000 3.8000 0.2500
vt 1.0000 1.7500 3.8000
vt -3.7000 0.2500 -1.7500
vt -3.7000 1.7500 -1.7500
vt -2.4000 1.7500 -1.7500
vt -2.4000 0.2500 -1.7500
vt 5.7000 0.2500 5.1000
vt 2.9247 0.2500 5.1000
vt 2.9247 1.7500 5.1000
vt 5.7000 1.7500 5.1000
vt 4.4000 2.3000 0.2500
vt 5.7000 2.3000 0.2500
vt 0.2500 2.3000 4.4000
vt -3.7000 2.3000 1.7500
vt 2.9247 3.8000 0.2500
vt 5.7000 3.8000 0.2500
vt 0.2500 3.8000 2.9247
vt -3.7000 3.8000 1.7500
vt 1.0000 0.2500 5.1000
vt 1.0000 1.7500 5.1000
vt -3.7000 -1.7500 0.2500
vt -2.4000 -1.7500 0.2500
vt 0.2500 -1.7500 -2.4000
vt 1.7500 -1.7500 -2.4000
vt 0.2500 2.3000 -2.4000
vt 4.4000 -1.7500 1.7500
vt 5.7000 -1.7500 1.7500
vt 4.4000 2.3000 1.7500
vt 0.2500 -1.7500 -3.7000
vt 1.7500 -1.7500 -3.7000
vt 1.7500 2.3000 -3.7000
vt 0.2500 2.3000 -3.7000
vt 0.2500 3.8000 -0.9247
vt 0.2500 2.3000 -2.4000
vt 2.9247 3.8000 1.7500
vt 4.4000 2.3000 1.7500
vt 1.7500 2.3000 -3.7000
vt 1.7500 3.8000 -3.7000
vt 0.2500 3.8000 -3.7000
vt 0.2500 2.3000 -3.7000
vt -0.9247 5.1000 0.2500
vt -3.7000 5.1000 0.2500
vt 5.7000 5.1000 1.7500
vt 2.9247 5.1000 1.7500
vt 2.9247 3.8000 1.7500
vt 1.7500 3.8000 -3.7000
vt 1.7500 5.1000 -3.7000
vt 0.2500 5.1000 -3.7000
vt 0.2500 3.8000 -3.7000
vt -0.9247 5.1000 0.2500
vt 1.0000 5.1000 0.2500
vt 2.9247 0.2500 3.8000
vt 2.9247 1.7500 3.8000
vt 1.0000 0.2500 3.8000
vt 2.9247 3.8000 1.7500
vt 2.9247 5.1000 1.7500
vt 1.0000 5.1000 1.7500
vt 1.0000 3.8000 1.7500
vt 5.7000 -1.7500 0.2500
vt 4.4000 -1.7500 0.2500
vt 1.7500 -1.7500 4.4000
vt 1.7500 2.3000 4.4000
vt 0.2500 -1.7500 4.4000
vt -2.4000 -1.7500 1.7500
vt -2.4000 2.3000 1.7500
vt -3.7000 -1.7500 1.7500
vt 1.7500 -1.7500 5.7000
vt 1.7500 2.3000 5.7000
vt 0.2500 2.3000 5.7000
vt 0.2500 -1.7500 5.7000
vt 1.7500 2.3000 4.4000
vt 1.7500 3.8000 2.9247
vt -2.4000 2.3000 1.7500
vt -0.9247 3.8000 1.7500
vt 0.2500 2.3000 5.7000
vt 1.7500 2.3000 5.7000
vt 1.7500 3.8000 5.7000
vt 0.2500 3.8000 5.7000
vt 5.7000 5.1000 0.2500
vt 2.9247 5.1000 0.2500
vt -0.9247 3.8000 1.7500
vt -0.9247 5.1000 1.7500
vt -3.7000 5.1000 1.7500
vt 0.2500 3.8000 5.7000
vt 1.7500 3.8000 5.7000
vt 1.7500 5.1000 5.7000
vt 0.2500 5.1000 5.7000
vt 2.9247 5.1000 0.2500
vt 1.0000 5.1000 0.2500
vt -0.9247 0.2500 3.8000
vt 1.0000 0.2500 3.8000
vt -0.9247 1.7500 3.8000
vt -0.9247 3.8000 1.7500
vt 1.0000 3.8000 1.7500
vt 1.0000 5.1000 1.7500
vt -0.9247 5.1000 1.7500
# 112 texture coords

o Box007
g Box007
usemtl wire_153228153
s 2
f 1/1/1 3/3/2 4/4/3 2/2/4 
s 4
f 5/5/5 6/6/6 8/8/7 7/7/8 
s 8
f 1/37/9 2/38/10 9/9/11 10/10/12 
s 16
f 2/39/13 4/40/14 11/11/15 9/41/16 
s 32
f 4/42/17 3/43/18 12/12/19 11/44/20 
s 64
f 3/45/21 1/46/22 10/47/23 12/48/24 
s 8
f 9/9/25 14/14/26 13/13/27 10/10/28 
s 16
f 11/11/29 15/15/30 14/49/31 9/50/32 
s 32
f 12/12/33 16/16/34 15/51/35 11/52/36 
s 64
f 10/53/37 13/54/38 16/55/39 12/56/40 
s 8
f 14/14/41 6/57/42 5/58/43 13/13/44 
s 32
f 16/16/45 7/59/46 8/60/47 15/61/48 
s 64
f 13/62/49 5/63/50 7/64/51 16/65/52 
s off
f 8/8/53 6/6/54 35/35/55 36/36/56 
f 6/66/57 14/14/58 17/17/59 35/67/60 
f 14/68/61 15/69/62 18/18/63 17/70/64 
f 15/71/65 8/72/66 36/73/67 18/74/68 
s 2
f 19/19/69 22/22/70 21/21/71 20/20/72 
s 4
f 23/23/73 26/26/74 25/25/75 24/24/76 
s 8
f 19/75/77 28/28/78 27/27/79 22/76/80 
s 16
f 22/77/81 27/78/82 29/29/83 21/79/84 
s 32
f 21/80/85 29/81/86 30/30/87 20/82/88 
s 64
f 20/83/89 30/84/90 28/85/91 19/86/92 
s 8
f 27/27/93 28/28/94 32/32/95 31/31/96 
s 16
f 29/29/97 27/87/98 31/88/99 33/33/100 
s 32
f 30/30/101 29/89/102 33/90/103 34/34/104 
s 64
f 28/91/105 30/92/106 34/93/107 32/94/108 
s 8
f 31/31/109 32/32/110 23/95/111 24/96/112 
s 32
f 34/34/113 33/97/114 25/98/115 26/99/116 
s 64
f 32/100/117 34/101/118 26/102/119 23/103/120 
s off
f 25/25/121 36/36/122 35/35/123 24/24/124 
f 24/104/125 35/105/126 17/17/127 31/31/128 
f 31/106/129 17/107/130 18/18/131 33/108/132 
f 33/109/133 18/110/134 36/111/135 25/112/136 
# 34 polygons

