# 3ds Max Wavefront OBJ Exporter v0.97b - (c)2007 guruware
# File Created: 04.01.2021 22:05:56

mtllib StairWalls.mtl

#
# object Box008
#

v  2.0000 -0.3500 2.7500
v  3.0000 -0.3500 2.7500
v  2.0000 -0.3500 -2.7500
v  3.0000 -0.3500 -2.7500
v  2.0000 7.1500 2.7500
v  3.0000 7.1500 2.7500
v  2.0000 7.1500 -2.7500
v  3.0000 7.1500 -2.7500
v  -2.0000 -0.3500 2.7500
v  -2.0000 -0.3500 -2.7500
v  -3.0000 -0.3500 -2.7500
v  -3.0000 -0.3500 2.7500
v  -2.0000 7.1500 2.7500
v  -3.0000 7.1500 2.7500
v  -3.0000 7.1500 -2.7500
v  -2.0000 7.1500 -2.7500
# 16 vertices

vn -0.5774 -0.5774 0.5774
vn -0.5774 -0.5774 -0.5774
vn 0.5774 -0.5774 -0.5774
vn 0.5774 -0.5774 0.5774
vn -0.5774 0.5774 0.5774
vn 0.5774 0.5774 0.5774
vn 0.5774 0.5774 -0.5774
vn -0.5774 0.5774 -0.5774
vn -0.5774 -0.5774 0.5774
vn 0.5774 -0.5774 0.5774
vn 0.5774 0.5774 0.5774
vn -0.5774 0.5774 0.5774
vn 0.5774 -0.5774 0.5774
vn 0.5774 -0.5774 -0.5774
vn 0.5774 0.5774 -0.5774
vn 0.5774 0.5774 0.5774
vn 0.5774 -0.5774 -0.5774
vn -0.5774 -0.5774 -0.5774
vn -0.5774 0.5774 -0.5774
vn 0.5774 0.5774 -0.5774
vn -0.5774 -0.5774 -0.5774
vn -0.5774 -0.5774 0.5774
vn -0.5774 0.5774 0.5774
vn -0.5774 0.5774 -0.5774
vn 0.5774 -0.5774 -0.5774
vn 0.5774 -0.5774 0.5774
vn -0.5774 -0.5774 0.5774
vn -0.5774 -0.5774 -0.5774
vn -0.5774 0.5774 0.5774
vn 0.5774 0.5774 0.5774
vn 0.5774 0.5774 -0.5774
vn -0.5774 0.5774 -0.5774
vn -0.5774 -0.5774 0.5774
vn 0.5774 -0.5774 0.5774
vn 0.5774 0.5774 0.5774
vn -0.5774 0.5774 0.5774
vn -0.5774 -0.5774 -0.5774
vn -0.5774 -0.5774 0.5774
vn -0.5774 0.5774 0.5774
vn -0.5774 0.5774 -0.5774
vn 0.5774 -0.5774 -0.5774
vn -0.5774 -0.5774 -0.5774
vn -0.5774 0.5774 -0.5774
vn 0.5774 0.5774 -0.5774
vn 0.5774 -0.5774 0.5774
vn 0.5774 -0.5774 -0.5774
vn 0.5774 0.5774 -0.5774
vn 0.5774 0.5774 0.5774
# 48 vertex normals

vt 3.2500 -3.2500 0.0000
vt -2.2500 4.2500 1.0000
vt -2.2500 4.2500 0.0000
vt 0.0000 4.2500 3.2500
vt 1.0000 -2.2500 -3.2500
vt 1.0000 3.2500 -3.2500
vt 0.0000 3.2500 -3.2500
vt 0.0000 -2.2500 -3.2500
vt 0.0000 -2.2500 4.2500
vt 1.0000 -2.2500 4.2500
vt 1.0000 3.2500 4.2500
vt 0.0000 3.2500 4.2500
vt 0.0000 -3.2500 -2.2500
vt 1.0000 -3.2500 -2.2500
vt 1.0000 4.2500 -2.2500
vt 0.0000 4.2500 -2.2500
vt -2.2500 -3.2500 1.0000
vt 3.2500 -3.2500 1.0000
vt 3.2500 4.2500 1.0000
vt 0.0000 -3.2500 3.2500
vt 1.0000 -3.2500 3.2500
vt 1.0000 4.2500 3.2500
vt -2.2500 -3.2500 0.0000
vt 3.2500 4.2500 0.0000
vt 1.0000 -2.2500 -3.2500
vt 1.0000 3.2500 -3.2500
vt 0.0000 3.2500 -3.2500
vt 0.0000 -2.2500 -3.2500
vt 0.0000 -2.2500 4.2500
vt 1.0000 -2.2500 4.2500
vt 1.0000 3.2500 4.2500
vt 0.0000 3.2500 4.2500
vt 0.0000 -3.2500 -2.2500
vt 1.0000 -3.2500 -2.2500
vt 1.0000 4.2500 -2.2500
vt 0.0000 4.2500 -2.2500
vt -2.2500 -3.2500 1.0000
vt 3.2500 -3.2500 1.0000
vt 3.2500 4.2500 1.0000
vt -2.2500 4.2500 1.0000
vt 0.0000 -3.2500 3.2500
vt 1.0000 -3.2500 3.2500
vt 1.0000 4.2500 3.2500
vt 0.0000 4.2500 3.2500
vt -2.2500 -3.2500 0.0000
vt 3.2500 -3.2500 0.0000
vt 3.2500 4.2500 0.0000
vt -2.2500 4.2500 0.0000
# 48 texture coords

o Box008
g Box008
usemtl wire_145028177
s 2
f 1/5/1 3/6/2 4/7/3 2/8/4 
s 4
f 5/9/5 6/10/6 8/11/7 7/12/8 
s 8
f 1/13/9 2/14/10 6/15/11 5/16/12 
s 16
f 2/17/13 4/18/14 8/19/15 6/2/16 
s 32
f 4/20/17 3/21/18 7/22/19 8/4/20 
s 64
f 3/23/21 1/1/22 5/24/23 7/3/24 
s 2
f 10/26/25 9/25/26 12/28/27 11/27/28 
s 4
f 14/30/29 13/29/30 16/32/31 15/31/32 
s 8
f 12/34/33 9/33/34 13/36/35 14/35/36 
s 16
f 11/38/37 12/37/38 14/40/39 15/39/40 
s 32
f 10/42/41 11/41/42 15/44/43 16/43/44 
s 64
f 9/46/45 10/45/46 16/48/47 13/47/48 
# 12 polygons

