# 3ds Max Wavefront OBJ Exporter v0.97b - (c)2007 guruware
# File Created: 04.01.2021 19:45:49

mtllib Stairs.mtl

#
# object Box003
#

v  -2.0000 -1.5000 -1.7500
v  -2.0000 -1.5000 -2.7500
v  2.0000 -1.5000 -2.7500
v  2.0000 -1.5000 -1.7500
v  -2.0000 -1.0000 -1.7500
v  2.0000 -1.0000 -1.7500
v  2.0000 -1.0000 -2.7500
v  -2.0000 -1.0000 -2.7500
v  -2.0000 -1.0000 -0.7500
v  -2.0000 -1.0000 -1.7500
v  2.0000 -1.0000 -1.7500
v  2.0000 -1.0000 -0.7500
v  -2.0000 -0.5000 -0.7500
v  2.0000 -0.5000 -0.7500
v  2.0000 -0.5000 -1.7500
v  -2.0000 -0.5000 -1.7500
v  -2.0000 -0.5000 0.2500
v  -2.0000 -0.5000 -0.7500
v  2.0000 -0.5000 -0.7500
v  2.0000 -0.5000 0.2500
v  -2.0000 0.0000 0.2500
v  2.0000 0.0000 0.2500
v  2.0000 0.0000 -0.7500
v  -2.0000 0.0000 -0.7500
v  -2.0000 0.0000 1.2500
v  -2.0000 0.0000 0.2500
v  2.0000 0.0000 0.2500
v  2.0000 0.0000 1.2500
v  -2.0000 0.5000 1.2500
v  2.0000 0.5000 1.2500
v  2.0000 0.5000 0.2500
v  -2.0000 0.5000 0.2500
v  -2.0000 0.5000 2.2500
v  -2.0000 0.5000 1.2500
v  2.0000 0.5000 1.2500
v  2.0000 0.5000 2.2500
v  -2.0000 1.0000 2.2500
v  2.0000 1.0000 2.2500
v  2.0000 1.0000 1.2500
v  -2.0000 1.0000 1.2500
v  -2.0000 1.0000 3.2500
v  -2.0000 1.0000 2.2500
v  2.0000 1.0000 2.2500
v  2.0000 1.0000 3.2500
v  -2.0000 1.5000 3.2500
v  2.0000 1.5000 3.2500
v  2.0000 1.5000 2.2500
v  -2.0000 1.5000 2.2500
# 48 vertices

vn -0.5774 -0.5774 0.5774
vn -0.5774 -0.5774 -0.5774
vn 0.5774 -0.5774 -0.5774
vn 0.5774 -0.5774 0.5774
vn -0.5774 0.5774 0.5774
vn 0.5774 0.5774 0.5774
vn 0.5774 0.5774 -0.5774
vn -0.5774 0.5774 -0.5774
vn -0.5774 -0.5774 0.5774
vn 0.5774 -0.5774 0.5774
vn 0.5774 0.5774 0.5774
vn -0.5774 0.5774 0.5774
vn 0.5774 -0.5774 0.5774
vn 0.5774 -0.5774 -0.5774
vn 0.5774 0.5774 -0.5774
vn 0.5774 0.5774 0.5774
vn 0.5774 -0.5774 -0.5774
vn -0.5774 -0.5774 -0.5774
vn -0.5774 0.5774 -0.5774
vn 0.5774 0.5774 -0.5774
vn -0.5774 -0.5774 -0.5774
vn -0.5774 -0.5774 0.5774
vn -0.5774 0.5774 0.5774
vn -0.5774 0.5774 -0.5774
vn -0.5774 -0.5774 0.5774
vn -0.5774 -0.5774 -0.5774
vn 0.5774 -0.5774 -0.5774
vn 0.5774 -0.5774 0.5774
vn -0.5774 -0.5774 0.5774
vn 0.5774 -0.5774 0.5774
vn 0.5774 0.5774 0.5774
vn -0.5774 0.5774 0.5774
vn -0.5774 0.5774 0.5774
vn 0.5774 0.5774 0.5774
vn 0.5774 0.5774 -0.5774
vn -0.5774 0.5774 -0.5774
vn 0.5774 -0.5774 0.5774
vn 0.5774 -0.5774 -0.5774
vn 0.5774 0.5774 -0.5774
vn 0.5774 0.5774 0.5774
vn 0.5774 -0.5774 -0.5774
vn -0.5774 -0.5774 -0.5774
vn -0.5774 0.5774 -0.5774
vn 0.5774 0.5774 -0.5774
vn -0.5774 -0.5774 -0.5774
vn -0.5774 -0.5774 0.5774
vn -0.5774 0.5774 0.5774
vn -0.5774 0.5774 -0.5774
vn -0.5774 -0.5774 0.5774
vn -0.5774 -0.5774 -0.5774
vn 0.5774 -0.5774 -0.5774
vn 0.5774 -0.5774 0.5774
vn -0.5774 -0.5774 0.5774
vn 0.5774 -0.5774 0.5774
vn 0.5774 0.5774 0.5774
vn -0.5774 0.5774 0.5774
vn -0.5774 0.5774 0.5774
vn 0.5774 0.5774 0.5774
vn 0.5774 0.5774 -0.5774
vn -0.5774 0.5774 -0.5774
vn 0.5774 -0.5774 0.5774
vn 0.5774 -0.5774 -0.5774
vn 0.5774 0.5774 -0.5774
vn 0.5774 0.5774 0.5774
vn 0.5774 -0.5774 -0.5774
vn -0.5774 -0.5774 -0.5774
vn -0.5774 0.5774 -0.5774
vn 0.5774 0.5774 -0.5774
vn -0.5774 -0.5774 -0.5774
vn -0.5774 -0.5774 0.5774
vn -0.5774 0.5774 0.5774
vn -0.5774 0.5774 -0.5774
vn -0.5774 -0.5774 0.5774
vn -0.5774 -0.5774 -0.5774
vn 0.5774 -0.5774 -0.5774
vn 0.5774 -0.5774 0.5774
vn -0.5774 -0.5774 0.5774
vn 0.5774 -0.5774 0.5774
vn 0.5774 0.5774 0.5774
vn -0.5774 0.5774 0.5774
vn -0.5774 0.5774 0.5774
vn 0.5774 0.5774 0.5774
vn 0.5774 0.5774 -0.5774
vn -0.5774 0.5774 -0.5774
vn 0.5774 -0.5774 0.5774
vn 0.5774 -0.5774 -0.5774
vn 0.5774 0.5774 -0.5774
vn 0.5774 0.5774 0.5774
vn 0.5774 -0.5774 -0.5774
vn -0.5774 -0.5774 -0.5774
vn -0.5774 0.5774 -0.5774
vn 0.5774 0.5774 -0.5774
vn -0.5774 -0.5774 -0.5774
vn -0.5774 -0.5774 0.5774
vn -0.5774 0.5774 0.5774
vn -0.5774 0.5774 -0.5774
vn -0.5774 -0.5774 0.5774
vn -0.5774 -0.5774 -0.5774
vn 0.5774 -0.5774 -0.5774
vn 0.5774 -0.5774 0.5774
vn -0.5774 -0.5774 0.5774
vn 0.5774 -0.5774 0.5774
vn 0.5774 0.5774 0.5774
vn -0.5774 0.5774 0.5774
vn -0.5774 0.5774 0.5774
vn 0.5774 0.5774 0.5774
vn 0.5774 0.5774 -0.5774
vn -0.5774 0.5774 -0.5774
vn 0.5774 -0.5774 0.5774
vn 0.5774 -0.5774 -0.5774
vn 0.5774 0.5774 -0.5774
vn 0.5774 0.5774 0.5774
vn 0.5774 -0.5774 -0.5774
vn -0.5774 -0.5774 -0.5774
vn -0.5774 0.5774 -0.5774
vn 0.5774 0.5774 -0.5774
vn -0.5774 -0.5774 -0.5774
vn -0.5774 -0.5774 0.5774
vn -0.5774 0.5774 0.5774
vn -0.5774 0.5774 -0.5774
vn -0.5774 -0.5774 0.5774
vn -0.5774 -0.5774 -0.5774
vn 0.5774 -0.5774 -0.5774
vn 0.5774 -0.5774 0.5774
vn -0.5774 -0.5774 0.5774
vn 0.5774 -0.5774 0.5774
vn 0.5774 0.5774 0.5774
vn -0.5774 0.5774 0.5774
vn -0.5774 0.5774 0.5774
vn 0.5774 0.5774 0.5774
vn 0.5774 0.5774 -0.5774
vn -0.5774 0.5774 -0.5774
vn 0.5774 -0.5774 0.5774
vn 0.5774 -0.5774 -0.5774
vn 0.5774 0.5774 -0.5774
vn 0.5774 0.5774 0.5774
vn 0.5774 -0.5774 -0.5774
vn -0.5774 -0.5774 -0.5774
vn -0.5774 0.5774 -0.5774
vn 0.5774 0.5774 -0.5774
vn -0.5774 -0.5774 -0.5774
vn -0.5774 -0.5774 0.5774
vn -0.5774 0.5774 0.5774
vn -0.5774 0.5774 -0.5774
# 144 vertex normals

vt 2.5000 2.5000 -1.0000
vt 2.5000 3.5000 -1.0000
vt -1.5000 3.5000 -1.0000
vt -1.5000 2.5000 -1.0000
vt -1.5000 2.5000 -0.5000
vt 2.5000 2.5000 -0.5000
vt 2.5000 3.5000 -0.5000
vt -1.5000 3.5000 -0.5000
vt 2.5000 1.5000 -0.5000
vt 2.5000 2.5000 -0.5000
vt -1.5000 2.5000 -0.5000
vt -1.5000 1.5000 -0.5000
vt -1.5000 0.0000 1.5000
vt 2.5000 0.0000 1.5000
vt 2.5000 2.5000 0.0000
vt -1.5000 2.5000 0.0000
vt 2.5000 0.5000 0.0000
vt 2.5000 1.5000 0.0000
vt -1.5000 1.5000 0.0000
vt -1.5000 0.5000 0.0000
vt -1.5000 0.5000 0.5000
vt 2.5000 0.5000 0.5000
vt 2.5000 1.5000 0.5000
vt -1.5000 1.5000 0.5000
vt 2.5000 -0.5000 0.5000
vt 2.5000 0.5000 0.5000
vt -1.5000 0.5000 0.5000
vt -1.5000 -0.5000 0.5000
vt -1.5000 1.0000 -0.5000
vt 2.5000 1.0000 -0.5000
vt 2.5000 0.5000 1.0000
vt -1.5000 0.5000 1.0000
vt 2.5000 -1.5000 1.0000
vt 2.5000 -0.5000 1.0000
vt -1.5000 -0.5000 1.0000
vt -1.5000 -1.5000 1.0000
vt -1.5000 1.5000 -1.5000
vt 2.5000 1.5000 -1.5000
vt 2.5000 -0.5000 1.5000
vt -1.5000 -0.5000 1.5000
vt 2.5000 -2.5000 1.5000
vt 2.5000 -1.5000 1.5000
vt -1.5000 -1.5000 1.5000
vt -1.5000 -2.5000 1.5000
vt -1.5000 2.0000 -2.5000
vt 2.5000 2.0000 -2.5000
vt 2.5000 -1.5000 2.0000
vt -1.5000 -1.5000 2.0000
vt -1.5000 -1.0000 2.5000
vt 2.5000 -1.0000 2.5000
vt 2.5000 -0.5000 2.5000
vt -1.5000 -0.5000 2.5000
vt 2.5000 -1.0000 2.5000
vt 3.5000 -1.0000 2.5000
vt 3.5000 -0.5000 2.5000
vt 2.5000 -0.5000 2.5000
vt -1.5000 -1.0000 3.5000
vt 2.5000 -1.0000 3.5000
vt 2.5000 -0.5000 3.5000
vt -1.5000 -0.5000 3.5000
vt -2.5000 -1.0000 -1.5000
vt -1.5000 -1.0000 -1.5000
vt -1.5000 -0.5000 -1.5000
vt -2.5000 -0.5000 -1.5000
vt -1.5000 -0.5000 1.5000
vt 2.5000 -0.5000 1.5000
vt -1.5000 1.5000 0.0000
vt 2.5000 1.5000 0.0000
vt 1.5000 -0.5000 2.5000
vt 2.5000 -0.5000 2.5000
vt 2.5000 0.0000 2.5000
vt 1.5000 0.0000 2.5000
vt -1.5000 -0.5000 2.5000
vt 2.5000 -0.5000 2.5000
vt 2.5000 0.0000 2.5000
vt -1.5000 0.0000 2.5000
vt -1.5000 -0.5000 -1.5000
vt -0.5000 -0.5000 -1.5000
vt -0.5000 0.0000 -1.5000
vt -1.5000 0.0000 -1.5000
vt -1.5000 0.0000 0.5000
vt 2.5000 0.0000 0.5000
vt -1.5000 0.5000 0.5000
vt 2.5000 0.5000 0.5000
vt 0.5000 0.0000 2.5000
vt 1.5000 0.0000 2.5000
vt 1.5000 0.5000 2.5000
vt 0.5000 0.5000 2.5000
vt -1.5000 0.0000 1.5000
vt 2.5000 0.0000 1.5000
vt 2.5000 0.5000 1.5000
vt -1.5000 0.5000 1.5000
vt -0.5000 0.0000 -1.5000
vt 0.5000 0.0000 -1.5000
vt 0.5000 0.5000 -1.5000
vt -0.5000 0.5000 -1.5000
vt -1.5000 0.5000 -0.5000
vt 2.5000 0.5000 -0.5000
vt -1.5000 -0.5000 1.0000
vt 2.5000 -0.5000 1.0000
vt -0.5000 0.5000 2.5000
vt 0.5000 0.5000 2.5000
vt 0.5000 1.0000 2.5000
vt -0.5000 1.0000 2.5000
vt -1.5000 0.5000 0.5000
vt 2.5000 0.5000 0.5000
vt 2.5000 1.0000 0.5000
vt -1.5000 1.0000 0.5000
vt 0.5000 0.5000 -1.5000
vt 1.5000 0.5000 -1.5000
vt 1.5000 1.0000 -1.5000
vt 0.5000 1.0000 -1.5000
vt -1.5000 1.0000 -1.5000
vt 2.5000 1.0000 -1.5000
vt -1.5000 -1.5000 1.5000
vt 2.5000 -1.5000 1.5000
vt -1.5000 1.0000 2.5000
vt -0.5000 1.0000 2.5000
vt -0.5000 1.5000 2.5000
vt -1.5000 1.5000 2.5000
vt -1.5000 1.0000 -0.5000
vt 2.5000 1.0000 -0.5000
vt 2.5000 1.5000 -0.5000
vt -1.5000 1.5000 -0.5000
vt 1.5000 1.0000 -1.5000
vt 2.5000 1.0000 -1.5000
vt 2.5000 1.5000 -1.5000
vt 1.5000 1.5000 -1.5000
vt -1.5000 1.5000 -2.5000
vt 2.5000 1.5000 -2.5000
vt -1.5000 -2.5000 2.0000
vt 2.5000 -2.5000 2.0000
vt -2.5000 1.5000 2.5000
vt -1.5000 1.5000 2.5000
vt -1.5000 2.0000 2.5000
vt -2.5000 2.0000 2.5000
vt -1.5000 1.5000 -1.5000
vt 2.5000 1.5000 -1.5000
vt 2.5000 2.0000 -1.5000
vt -1.5000 2.0000 -1.5000
vt 2.5000 1.5000 -1.5000
vt 3.5000 1.5000 -1.5000
vt 3.5000 2.0000 -1.5000
vt 2.5000 2.0000 -1.5000
# 144 texture coords

o Box003
g Box003
usemtl wire_229166215
s 2
f 1/1/1 2/2/2 3/3/3 4/4/4 
s 4
f 5/5/5 6/6/6 7/7/7 8/8/8 
s 8
f 1/49/9 4/50/10 6/51/11 5/52/12 
s 16
f 4/53/13 3/54/14 7/55/15 6/56/16 
s 32
f 3/57/17 2/58/18 8/59/19 7/60/20 
s 64
f 2/61/21 1/62/22 5/63/23 8/64/24 
s 3
f 9/9/25 10/10/26 11/11/27 12/12/28 
s 2
f 9/65/29 12/66/30 14/14/31 13/13/32 
s 1
f 13/67/33 14/68/34 15/15/35 16/16/36 
s 4
f 12/69/37 11/70/38 15/71/39 14/72/40 
s 8
f 11/73/41 10/74/42 16/75/43 15/76/44 
s 4
f 10/77/45 9/78/46 13/79/47 16/80/48 
s 3
f 17/17/49 18/18/50 19/19/51 20/20/52 
s 2
f 17/81/53 20/82/54 22/22/55 21/21/56 
s 1
f 21/83/57 22/84/58 23/23/59 24/24/60 
s 4
f 20/85/61 19/86/62 23/87/63 22/88/64 
s 8
f 19/89/65 18/90/66 24/91/67 23/92/68 
s 4
f 18/93/69 17/94/70 21/95/71 24/96/72 
s 3
f 25/25/73 26/26/74 27/27/75 28/28/76 
s 2
f 25/97/77 28/98/78 30/30/79 29/29/80 
s 1
f 29/99/81 30/100/82 31/31/83 32/32/84 
s 4
f 28/101/85 27/102/86 31/103/87 30/104/88 
s 8
f 27/105/89 26/106/90 32/107/91 31/108/92 
s 4
f 26/109/93 25/110/94 29/111/95 32/112/96 
s 3
f 33/33/97 34/34/98 35/35/99 36/36/100 
s 2
f 33/113/101 36/114/102 38/38/103 37/37/104 
s 1
f 37/115/105 38/116/106 39/39/107 40/40/108 
s 4
f 36/117/109 35/118/110 39/119/111 38/120/112 
s 8
f 35/121/113 34/122/114 40/123/115 39/124/116 
s 4
f 34/125/117 33/126/118 37/127/119 40/128/120 
s 3
f 41/41/121 42/42/122 43/43/123 44/44/124 
s 2
f 41/129/125 44/130/126 46/46/127 45/45/128 
s 1
f 45/131/129 46/132/130 47/47/131 48/48/132 
s 4
f 44/133/133 43/134/134 47/135/135 46/136/136 
s 8
f 43/137/137 42/138/138 48/139/139 47/140/140 
s 4
f 42/141/141 41/142/142 45/143/143 48/144/144 
# 36 polygons

