# 3ds Max Wavefront OBJ Exporter v0.97b - (c)2007 guruware
# File Created: 18.12.2020 00:33:56

mtllib TallPillar (Half).mtl

#
# object FullPillar__Double_
#

v  -1.0000 -3.5000 -0.5000
v  -1.0000 -2.8750 -0.5000
v  -0.5000 3.5000 -0.0004
v  -0.0005 3.5000 0.4995
v  -1.0000 -3.5000 0.5000
v  -0.4999 -3.5000 0.5000
v  -0.4999 -3.5000 0.0001
v  -1.0000 -2.8750 0.5000
v  -0.4999 -2.3750 0.0001
v  -0.4999 -2.3750 0.5000
v  -0.5004 3.5000 0.5000
v  -0.5004 3.5000 0.0000
v  -0.5000 3.5000 0.0000
v  -0.0005 3.5000 0.5000
v  -0.0000 -3.5000 -0.5000
v  -0.0000 -3.5000 0.0001
v  0.4999 -3.5000 0.0001
v  1.0000 -3.5000 -0.5000
v  0.0000 -3.5000 0.5000
v  -0.0000 -2.8750 -0.5000
v  1.0000 -2.8750 -0.5000
v  0.4999 -2.3750 0.0001
v  -0.0000 -2.3750 0.0001
v  -0.0000 3.5000 -0.0004
v  0.5000 3.5000 -0.0004
v  0.5000 3.5000 -0.0000
v  0.0005 3.5000 0.4995
v  0.0000 3.5000 0.4995
v  0.0000 -2.3750 0.5000
v  1.0000 -3.5000 0.5000
v  0.4999 -3.5000 0.5000
v  1.0000 -2.8750 0.5000
v  0.4999 -2.3750 0.5000
v  0.5004 3.5000 0.5000
v  0.0005 3.5000 0.5000
v  0.5004 3.5000 -0.0000
# 36 vertices

vn -0.0000 -0.7071 -0.7071
vn 0.0000 -1.0000 -0.0000
vn 0.0000 -1.0000 -0.0000
vn -0.5774 -0.5774 -0.5773
vn 0.0000 -1.0000 -0.0000
vn 0.0000 -0.7071 0.7071
vn 0.0000 -1.0000 -0.0000
vn -0.0000 0.3827 -0.9239
vn -0.6507 0.3914 -0.6507
vn -0.5789 0.5743 -0.5789
vn -0.0000 0.3827 -0.9239
vn -0.0000 0.7071 -0.7071
vn -0.5772 0.5778 -0.5770
vn -0.3017 0.9044 -0.3017
vn 0.3015 0.9045 0.3015
vn 0.0000 0.7071 0.7071
vn -0.0000 -0.7071 -0.7071
vn -0.5774 -0.5774 -0.5773
vn -0.6507 0.3914 -0.6507
vn -0.0000 0.3827 -0.9239
vn -0.0000 0.3827 -0.9239
vn -0.5789 0.5743 -0.5789
vn -0.5772 0.5778 -0.5770
vn -0.0000 0.7071 -0.7071
vn -0.5789 0.5743 -0.5789
vn -0.3017 0.9044 -0.3017
vn -0.5772 0.5778 -0.5770
vn 0.0000 -0.0000 1.0000
vn 0.0000 0.7071 0.7071
vn 0.3015 0.9045 0.3015
vn -0.5773 -0.5774 0.5774
vn -0.5774 -0.5774 -0.5773
vn 0.0000 -1.0000 -0.0000
vn 0.0000 -0.7071 0.7071
vn 0.0000 -0.7071 0.7071
vn 0.0000 -1.0000 -0.0000
vn 0.0000 -0.7071 0.7071
vn -0.7173 0.2972 0.6303
vn -0.5491 0.2274 0.8042
vn -0.5789 0.5743 -0.5789
vn -0.6507 0.3914 -0.6507
vn -0.5774 0.5773 0.5774
vn 0.5773 0.5774 0.5773
vn 0.3015 0.9045 0.3015
vn -0.3017 0.9044 -0.3017
vn -0.5770 0.5778 -0.5772
vn -0.5773 -0.5774 0.5774
vn -0.7173 0.2972 0.6303
vn -0.6507 0.3914 -0.6507
vn -0.5774 -0.5774 -0.5773
vn 0.0000 -0.7071 0.7071
vn 0.0000 -0.0000 1.0000
vn -0.5491 0.2274 0.8042
vn 0.0000 -0.7071 0.7071
vn 0.0000 -0.7071 0.7071
vn -0.5491 0.2274 0.8042
vn -0.7173 0.2972 0.6303
vn -0.5773 -0.5774 0.5774
vn -0.5491 0.2274 0.8042
vn -0.5774 0.5773 0.5774
vn -0.5770 0.5778 -0.5772
vn -0.5789 0.5743 -0.5789
vn -0.5789 0.5743 -0.5789
vn -0.5770 0.5778 -0.5772
vn -0.3017 0.9044 -0.3017
vn 0.0000 -0.0000 1.0000
vn 0.5773 0.5774 0.5773
vn -0.5774 0.5773 0.5774
vn -0.5491 0.2274 0.8042
vn 0.0000 -0.0000 1.0000
vn 0.3015 0.9045 0.3015
vn 0.5773 0.5774 0.5773
vn -0.0000 -0.7071 -0.7071
vn 0.5773 -0.5774 -0.5774
vn 0.0000 -1.0000 -0.0000
vn 0.0000 -1.0000 -0.0000
vn 0.0000 -1.0000 -0.0000
vn 0.0000 -1.0000 -0.0000
vn 0.0000 -0.7071 0.7071
vn -0.0000 0.3827 -0.9239
vn -0.0000 0.3827 -0.9239
vn 0.5789 0.5743 -0.5789
vn 0.6507 0.3914 -0.6507
vn -0.0000 0.7071 -0.7071
vn 0.0000 0.7071 0.7071
vn -0.3015 0.9045 0.3015
vn 0.3017 0.9044 -0.3017
vn 0.5772 0.5778 -0.5770
vn -0.0000 -0.7071 -0.7071
vn -0.0000 0.3827 -0.9239
vn 0.6507 0.3914 -0.6507
vn 0.5773 -0.5774 -0.5774
vn -0.0000 0.3827 -0.9239
vn -0.0000 0.7071 -0.7071
vn 0.5772 0.5778 -0.5770
vn 0.5789 0.5743 -0.5789
vn 0.5789 0.5743 -0.5789
vn 0.5772 0.5778 -0.5770
vn 0.3017 0.9044 -0.3017
vn 0.0000 -0.0000 1.0000
vn -0.3015 0.9045 0.3015
vn 0.0000 0.7071 0.7071
vn 0.5774 -0.5774 0.5773
vn 0.0000 -0.7071 0.7071
vn 0.0000 -1.0000 -0.0000
vn 0.5773 -0.5774 -0.5774
vn 0.0000 -0.7071 0.7071
vn 0.0000 -0.7071 0.7071
vn 0.0000 -1.0000 -0.0000
vn 0.7173 0.2972 0.6302
vn 0.6507 0.3914 -0.6507
vn 0.5789 0.5743 -0.5789
vn 0.5491 0.2274 0.8042
vn 0.5774 0.5773 0.5774
vn 0.5770 0.5778 -0.5772
vn 0.3017 0.9044 -0.3017
vn -0.3015 0.9045 0.3015
vn -0.5773 0.5774 0.5773
vn 0.5774 -0.5774 0.5773
vn 0.5773 -0.5774 -0.5774
vn 0.6507 0.3914 -0.6507
vn 0.7173 0.2972 0.6302
vn 0.0000 -0.7071 0.7071
vn 0.0000 -0.7071 0.7071
vn 0.5491 0.2274 0.8042
vn 0.0000 -0.0000 1.0000
vn 0.0000 -0.7071 0.7071
vn 0.5774 -0.5774 0.5773
vn 0.7173 0.2972 0.6302
vn 0.5491 0.2274 0.8042
vn 0.5491 0.2274 0.8042
vn 0.5789 0.5743 -0.5789
vn 0.5770 0.5778 -0.5772
vn 0.5774 0.5773 0.5774
vn 0.5789 0.5743 -0.5789
vn 0.3017 0.9044 -0.3017
vn 0.5770 0.5778 -0.5772
vn 0.0000 -0.0000 1.0000
vn 0.5491 0.2274 0.8042
vn 0.5774 0.5773 0.5774
vn -0.5773 0.5774 0.5773
vn 0.0000 -0.0000 1.0000
vn -0.5773 0.5774 0.5773
vn -0.3015 0.9045 0.3015
# 144 vertex normals

vt 2.0000 0.0000 -5.5000
vt 0.0000 -0.0000 -5.5000
vt 2.0000 1.0003 -5.5000
vt 1.0000 1.0003 -5.5000
vt 2.0000 2.0000 -5.5000
vt -0.0000 0.0000 -4.2500
vt 2.0000 -0.0000 -4.2500
vt 0.0000 1.0003 -3.2500
vt 1.0000 1.0003 -3.2500
vt 2.0000 -3.2500 2.0000
vt 0.0000 0.9993 8.5000
vt 1.0000 0.9993 8.5000
vt 0.0000 1.9990 8.5000
vt -0.0000 -5.5000 0.0000
vt 2.0000 -5.5000 -0.0000
vt 2.0000 -4.2500 -0.0000
vt -0.0000 -4.2500 0.0000
vt 0.0000 -3.2500 1.0003
vt 1.0000 -3.2500 1.0003
vt 1.0000 8.5000 0.9993
vt 0.0000 8.5000 0.9993
vt 1.0003 -3.2500 1.0000
vt 0.9993 8.5000 1.0000
vt 2.0000 8.5000 1.9990
vt 1.0000 1.0000 8.5000
vt 1.0000 8.5000 1.0000
vt 0.0010 1.9990 8.5000
vt 1.9990 8.5000 1.9990
vt 2.0000 0.0000 -5.5000
vt 2.0000 1.0003 -5.5000
vt 1.0000 1.0003 -5.5000
vt 0.0000 -0.0000 -5.5000
vt 2.0000 2.0000 -5.5000
vt -0.0000 0.0000 -4.2500
vt 2.0000 -0.0000 -4.2500
vt 1.0000 1.0003 -3.2500
vt 0.0000 1.0003 -3.2500
vt 0.0000 0.9993 8.5000
vt 1.0000 0.9993 8.5000
vt 1.0000 1.0000 8.5000
vt 0.0010 1.9990 8.5000
vt 0.0000 1.9990 8.5000
vt -0.0000 -5.5000 0.0000
vt 2.0000 -5.5000 -0.0000
vt 2.0000 -4.2500 -0.0000
vt -0.0000 -4.2500 0.0000
vt -0.0000 -5.5000 0.0000
vt 0.9997 -5.5000 0.0000
vt 0.9997 -3.2500 0.0000
vt -0.0000 -3.2500 0.0000
vt 0.9997 -5.5000 0.0000
vt 2.0000 -5.5000 -0.0000
vt 2.0000 -4.2500 -0.0000
vt 0.9997 -3.2500 0.0000
vt 0.0000 -3.2500 1.0003
vt 1.0000 -3.2500 1.0003
vt 1.0000 8.5000 0.9993
vt 0.0000 8.5000 0.9993
vt 1.0003 -3.2500 1.0000
vt 1.0000 8.5000 1.0000
vt 0.9993 8.5000 1.0000
vt -0.0000 -3.2500 0.0000
vt 0.9997 -3.2500 0.0000
vt 1.0007 8.5000 0.0000
vt 0.0010 8.5000 0.0000
vt 2.0000 -3.2500 2.0000
vt 2.0000 8.5000 1.9990
vt 1.9990 8.5000 1.9990
vt 2.0000 0.0000 -5.5000
vt 2.0000 1.0003 -5.5000
vt 1.0000 1.0003 -5.5000
vt 0.0000 -0.0000 -5.5000
vt 2.0000 2.0000 -5.5000
vt -0.0000 0.0000 -4.2500
vt 2.0000 -0.0000 -4.2500
vt 1.0000 1.0003 -3.2500
vt 0.0000 1.0003 -3.2500
vt 0.0000 0.9993 8.5000
vt 1.0000 0.9993 8.5000
vt 1.0000 1.0000 8.5000
vt 0.0010 1.9990 8.5000
vt 0.0000 1.9990 8.5000
vt -0.0000 -5.5000 0.0000
vt 2.0000 -5.5000 -0.0000
vt 2.0000 -4.2500 -0.0000
vt -0.0000 -4.2500 0.0000
vt 0.0000 -3.2500 1.0003
vt 1.0000 -3.2500 1.0003
vt 1.0000 8.5000 0.9993
vt 0.0000 8.5000 0.9993
vt 1.0003 -3.2500 1.0000
vt 1.0000 8.5000 1.0000
vt 0.9993 8.5000 1.0000
vt 2.0000 -3.2500 2.0000
vt 2.0000 8.5000 1.9990
vt 1.9990 8.5000 1.9990
vt 2.0000 0.0000 -5.5000
vt 0.0000 -0.0000 -5.5000
vt 1.0000 1.0003 -5.5000
vt 2.0000 1.0003 -5.5000
vt 2.0000 2.0000 -5.5000
vt -0.0000 0.0000 -4.2500
vt 0.0000 1.0003 -3.2500
vt 1.0000 1.0003 -3.2500
vt 2.0000 -0.0000 -4.2500
vt 0.0000 0.9993 8.5000
vt 0.0000 1.9990 8.5000
vt 0.0010 1.9990 8.5000
vt 1.0000 1.0000 8.5000
vt 1.0000 0.9993 8.5000
vt -0.0000 -5.5000 0.0000
vt -0.0000 -4.2500 0.0000
vt 2.0000 -4.2500 -0.0000
vt 2.0000 -5.5000 -0.0000
vt -0.0000 -5.5000 0.0000
vt -0.0000 -3.2500 0.0000
vt 0.9997 -3.2500 0.0000
vt 0.9997 -5.5000 0.0000
vt 0.9997 -5.5000 0.0000
vt 0.9997 -3.2500 0.0000
vt 2.0000 -4.2500 -0.0000
vt 2.0000 -5.5000 -0.0000
vt 0.0000 -3.2500 1.0003
vt 0.0000 8.5000 0.9993
vt 1.0000 8.5000 0.9993
vt 1.0000 -3.2500 1.0003
vt 1.0003 -3.2500 1.0000
vt 0.9993 8.5000 1.0000
vt 1.0000 8.5000 1.0000
vt -0.0000 -3.2500 0.0000
vt 0.0010 8.5000 0.0000
vt 1.0007 8.5000 0.0000
vt 0.9997 -3.2500 0.0000
vt 2.0000 -3.2500 2.0000
vt 1.9990 8.5000 1.9990
vt 2.0000 8.5000 1.9990
# 136 texture coords

o FullPillar__Double_
g FullPillar__Double_
usemtl wire_027177027
s 2
f 15/1/1 16/3/2 7/4/3 1/2/4 
f 16/3/5 19/5/6 7/4/7 
s 4
f 20/6/8 2/7/9 9/9/10 23/8/11 
f 24/11/12 3/12/13 13/25/14 4/27/15 28/13/16 
s 8
f 15/14/17 1/15/18 2/16/19 20/17/20 
s off
f 23/18/21 9/19/22 3/20/23 24/21/24 
f 9/22/25 13/26/26 3/23/27 
f 29/10/28 28/24/29 4/28/30 
s 2
f 5/29/31 1/32/32 7/31/33 6/30/34 
f 6/30/35 7/31/36 19/33/37 
s 4
f 8/34/38 10/37/39 9/36/40 2/35/41 
f 11/38/42 14/42/43 4/41/44 13/40/45 12/39/46 
s 8
f 5/43/47 8/46/48 2/45/49 1/44/50 
s 64
f 19/47/51 29/50/52 10/49/53 6/48/54 
f 6/51/55 10/54/56 8/53/57 5/52/58 
s off
f 10/55/59 11/58/60 12/57/61 9/56/62 
f 9/59/63 12/61/64 13/60/65 
f 29/62/66 14/65/67 11/64/68 10/63/69 
f 29/66/70 4/68/71 14/67/72 
s 2
f 15/69/73 18/72/74 17/71/75 16/70/76 
f 16/70/77 17/71/78 19/73/79 
s 4
f 20/74/80 23/77/81 22/76/82 21/75/83 
f 24/78/84 28/82/85 27/81/86 26/80/87 25/79/88 
s 8
f 15/83/89 20/86/90 21/85/91 18/84/92 
s off
f 23/87/93 24/90/94 25/89/95 22/88/96 
f 22/91/97 25/93/98 26/92/99 
f 29/94/100 27/96/101 28/95/102 
s 2
f 30/97/103 31/100/104 17/99/105 18/98/106 
f 31/100/107 19/101/108 17/99/109 
s 4
f 32/102/110 21/105/111 22/104/112 33/103/113 
f 34/106/114 36/110/115 26/109/116 27/108/117 35/107/118 
s 8
f 30/111/119 18/114/120 21/113/121 32/112/122 
s 64
f 19/115/123 31/118/124 33/117/125 29/116/126 
f 31/119/127 30/122/128 32/121/129 33/120/130 
s off
f 33/123/131 22/126/132 36/125/133 34/124/134 
f 22/127/135 26/129/136 36/128/137 
f 29/130/138 33/133/139 34/132/140 35/131/141 
f 29/134/142 35/136/143 27/135/144 
# 26 polygons - 12 triangles

