# 3ds Max Wavefront OBJ Exporter v0.97b - (c)2007 guruware
# File Created: 18.12.2020 01:28:52

mtllib TopFloor (Straight).mtl

#
# object Room__TopFloor___Straight_
#

v  9.0000 0.0000 9.0000
v  9.0000 0.0000 -9.0000
v  2.7500 -0.0000 9.0000
v  2.7500 -0.0000 -9.0000
v  9.0000 0.2500 9.0000
v  9.0000 0.2500 -9.0000
v  2.7500 0.2500 9.0000
v  2.7500 0.2500 -9.0000
# 8 vertices

vn 0.5774 -0.5774 0.5774
vn -0.5774 -0.5774 0.5774
vn -0.5773 -0.5774 -0.5774
vn 0.5774 -0.5773 -0.5774
vn 0.5773 0.5774 0.5774
vn 0.5774 0.5774 -0.5774
vn -0.5774 0.5774 -0.5774
vn -0.5774 0.5773 0.5774
vn 0.5774 -0.5774 0.5774
vn 0.5774 -0.5773 -0.5774
vn 0.5774 0.5774 -0.5774
vn 0.5773 0.5774 0.5774
vn 0.5774 -0.5773 -0.5774
vn -0.5773 -0.5774 -0.5774
vn -0.5774 0.5774 -0.5774
vn 0.5774 0.5774 -0.5774
vn -0.5774 -0.5774 0.5774
vn 0.5774 -0.5774 0.5774
vn 0.5773 0.5774 0.5774
vn -0.5774 0.5773 0.5774
vn -0.5774 -0.5774 0.5774
vn -0.5774 0.5773 0.5774
vn -0.5774 0.5774 -0.5774
vn -0.5773 -0.5774 -0.5774
# 24 vertex normals

vt 13.2279 0.5000 0.4500
vt 0.5000 -12.2280 0.4500
vt 8.8085 4.9194 0.4500
vt -3.9194 -7.8085 0.4500
vt -12.2279 0.5000 0.7000
vt 0.5000 -12.2280 0.7000
vt -7.8085 4.9194 0.7000
vt 4.9194 -7.8085 0.7000
vt 0.5000 0.4500 -12.2279
vt 13.2280 0.4500 0.5000
vt 13.2280 0.7000 0.5000
vt 0.5000 0.7000 -12.2279
vt 0.5000 0.4500 -12.2280
vt 4.9194 0.4500 -7.8085
vt 4.9194 0.7000 -7.8085
vt 0.5000 0.7000 -12.2280
vt 8.8085 0.4500 4.9194
vt 13.2279 0.4500 0.5000
vt 13.2279 0.7000 0.5000
vt 8.8085 0.7000 4.9194
vt 4.9194 0.4500 -7.8085
vt 4.9194 0.7000 -7.8085
vt -7.8085 0.7000 4.9194
vt -7.8085 0.4500 4.9194
# 24 texture coords

o Room__TopFloor___Straight_
g Room__TopFloor___Straight_
usemtl wire_177088027
s 2
f 1/1/1 3/3/2 4/4/3 2/2/4 
s 4
f 5/5/5 6/6/6 8/8/7 7/7/8 
s 8
f 1/9/9 2/10/10 6/11/11 5/12/12 
s 16
f 2/13/13 4/14/14 8/15/15 6/16/16 
s 64
f 3/17/17 1/18/18 5/19/19 7/20/20 
s 32
f 3/21/21 7/22/22 8/23/23 4/24/24 
# 6 polygons

